{"glyphs":{"0":{"ha":1024,"x_min":0,"x_max":0,"o":"m 514 -16 b 74 344 253 -16 74 109 b 514 706 74 577 253 706 b 950 344 773 706 950 577 b 514 -16 950 109 773 -16 m 514 123 b 768 344 655 123 768 201 b 514 568 768 485 657 568 b 257 344 371 568 257 487 b 514 123 257 201 369 123 "},"1":{"ha":542,"x_min":0,"x_max":0,"o":"m 411 690 l 411 0 l 231 0 l 231 536 l 35 536 l 35 690 "},"2":{"ha":876,"x_min":0,"x_max":0,"o":"m 820 139 l 820 0 l 81 0 l 81 126 l 81 126 l 81 126 l 81 126 l 81 126 b 618 451 430 283 618 332 b 430 562 618 516 560 562 b 232 435 312 562 234 512 l 57 435 b 425 707 47 594 195 707 b 804 473 650 707 804 618 b 474 209 804 344 671 283 l 296 130 "},"3":{"ha":893,"x_min":0,"x_max":0,"o":"m 542 258 b 842 38 719 244 842 193 b 441 -227 842 -118 686 -227 b 51 60 202 -227 42 -110 l 227 60 b 441 -74 229 -21 323 -74 b 651 63 575 -74 651 -28 b 412 201 651 152 563 201 l 293 201 l 293 301 l 412 301 b 635 432 570 301 635 350 b 441 554 635 508 563 554 b 236 428 323 554 239 504 l 61 428 b 441 708 52 600 228 708 b 824 463 680 708 824 609 b 542 258 824 319 709 271 "},"4":{"ha":988,"x_min":0,"x_max":0,"o":"m 932 -16 l 773 -16 l 773 -202 l 592 -202 l 592 -16 l 65 -16 l 65 121 l 592 696 l 773 696 l 773 121 l 932 121 m 592 121 l 592 469 l 280 121 "},"5":{"ha":951,"x_min":0,"x_max":0,"o":"m 561 360 b 886 74 742 360 886 263 b 496 -227 886 -118 731 -227 b 81 55 275 -227 89 -121 l 253 55 b 488 -78 263 -31 369 -78 b 706 75 598 -78 706 -32 b 493 231 706 182 604 231 b 264 143 406 231 309 210 l 108 172 l 149 695 l 792 695 l 792 540 l 317 540 l 293 254 b 561 360 347 322 452 360 "},"6":{"ha":957,"x_min":0,"x_max":0,"o":"m 544 592 b 907 287 764 592 909 471 b 489 -18 905 103 748 -18 b 37 281 213 -18 35 90 b 86 438 37 325 48 377 b 405 899 108 475 405 899 l 634 899 l 324 516 b 544 592 388 565 456 592 m 722 291 b 485 453 724 393 628 453 b 222 289 325 453 223 382 b 480 130 220 185 329 130 b 722 291 622 130 721 186 "},"7":{"ha":893,"x_min":0,"x_max":0,"o":"m 839 690 l 839 536 l 405 -208 l 188 -208 l 645 536 l 45 536 l 45 690 "},"8":{"ha":938,"x_min":0,"x_max":0,"o":"m 645 475 b 879 247 795 447 879 376 b 469 -18 879 99 746 -18 b 58 247 191 -18 58 99 b 292 475 58 376 142 447 b 85 672 156 500 85 561 b 469 917 85 814 210 917 b 853 672 728 917 853 814 b 645 475 853 561 781 500 m 469 766 b 272 649 332 766 272 719 b 469 527 272 579 332 527 b 670 649 606 527 670 579 b 469 766 670 719 606 766 m 469 135 b 696 265 625 135 696 189 b 469 400 696 346 625 400 b 245 265 313 400 245 346 b 469 135 245 189 313 135 "},"9":{"ha":968,"x_min":0,"x_max":0,"o":"m 486 711 b 929 413 763 711 931 604 b 873 250 929 365 914 313 b 561 -208 854 215 561 -208 l 332 -208 l 649 185 b 413 103 581 132 508 103 b 51 407 198 103 48 223 b 486 711 53 596 210 711 m 235 404 b 480 242 234 300 329 242 b 744 405 640 242 743 310 b 486 565 746 512 637 565 b 235 404 335 565 237 511 "},"A":{"ha":1096,"x_min":0,"x_max":0,"o":"m 777 205 l 316 205 l 223 0 l 23 0 l 445 898 l 646 898 l 1072 0 l 871 0 m 715 342 l 546 712 l 378 342 "},"Á":{"ha":1096,"x_min":0,"x_max":0,"o":"m 652 1010 l 442 1010 l 442 1169 l 652 1169 m 777 205 l 316 205 l 223 0 l 23 0 l 445 898 l 646 898 l 1072 0 l 871 0 m 715 342 l 546 712 l 378 342 "},"Ă":{"ha":1096,"x_min":0,"x_max":0,"o":"m 652 1010 l 442 1010 l 442 1169 l 652 1169 m 777 205 l 316 205 l 223 0 l 23 0 l 445 898 l 646 898 l 1072 0 l 871 0 m 715 342 l 546 712 l 378 342 "},"Â":{"ha":1096,"x_min":0,"x_max":0,"o":"m 652 1010 l 442 1010 l 442 1169 l 652 1169 m 777 205 l 316 205 l 223 0 l 23 0 l 445 898 l 646 898 l 1072 0 l 871 0 m 715 342 l 546 712 l 378 342 "},"Ä":{"ha":1096,"x_min":0,"x_max":0,"o":"m 294 750 l 85 750 l 85 909 l 294 909 m 1022 750 l 812 750 l 812 909 l 1022 909 m 777 205 l 316 205 l 223 0 l 23 0 l 445 898 l 646 898 l 1072 0 l 871 0 m 715 342 l 546 712 l 378 342 "},"À":{"ha":1096,"x_min":0,"x_max":0,"o":"m 652 1169 l 652 1010 l 442 1010 l 442 1169 m 777 205 l 316 205 l 223 0 l 23 0 l 445 898 l 646 898 l 1072 0 l 871 0 m 715 342 l 546 712 l 378 342 "},"Ā":{"ha":1096,"x_min":0,"x_max":0,"o":"m 652 1010 l 442 1010 l 442 1169 l 652 1169 m 777 205 l 316 205 l 223 0 l 23 0 l 445 898 l 646 898 l 1072 0 l 871 0 m 715 342 l 546 712 l 378 342 "},"Ą":{"ha":1096,"x_min":0,"x_max":0,"o":"m 777 205 l 316 205 l 223 0 l 23 0 l 445 898 l 646 898 l 1072 0 l 871 0 m 715 342 l 546 712 l 378 342 m 1087 -268 l 877 -268 l 877 -110 l 1087 -110 "},"Å":{"ha":1096,"x_min":0,"x_max":0,"o":"m 652 1010 l 442 1010 l 442 1169 l 652 1169 m 777 205 l 316 205 l 223 0 l 23 0 l 445 898 l 646 898 l 1072 0 l 871 0 m 715 342 l 546 712 l 378 342 "},"Ã":{"ha":1096,"x_min":0,"x_max":0,"o":"m 652 1010 l 442 1010 l 442 1169 l 652 1169 m 777 205 l 316 205 l 223 0 l 23 0 l 445 898 l 646 898 l 1072 0 l 871 0 m 715 342 l 546 712 l 378 342 "},"Æ":{"ha":1610,"x_min":0,"x_max":0,"o":"m 1526 154 l 1526 0 l 647 0 l 647 233 l 357 233 l 222 0 l 23 0 l 556 898 l 1524 898 l 1524 744 l 832 744 l 832 505 l 1398 505 l 1398 390 l 832 390 l 832 154 m 647 364 l 647 734 l 433 364 "},"B":{"ha":1083,"x_min":0,"x_max":0,"o":"m 1027 256 b 675 0 1027 84 884 5 l 675 0 l 107 0 l 107 898 l 625 898 b 993 663 865 898 993 817 b 756 454 993 527 902 473 b 1027 256 909 443 1027 403 m 292 743 l 292 500 l 621 500 b 800 628 737 500 800 543 b 630 743 800 711 734 743 m 658 156 b 838 276 774 156 838 192 b 639 394 838 372 746 394 l 292 394 l 292 156 l 658 156 "},"C":{"ha":1229,"x_min":0,"x_max":0,"o":"m 1155 324 b 644 -18 1131 106 946 -18 b 74 447 307 -18 74 138 b 644 917 74 756 307 917 b 1156 569 947 917 1132 788 l 972 569 b 644 756 935 684 828 756 b 263 447 415 756 263 649 b 644 138 263 244 415 138 b 972 324 827 138 934 209 l 1155 324 "},"Ć":{"ha":1229,"x_min":0,"x_max":0,"o":"m 735 1014 l 526 1014 l 526 1173 l 735 1173 m 1155 324 b 644 -18 1131 106 946 -18 b 74 447 307 -18 74 138 b 644 917 74 756 307 917 b 1156 569 947 917 1132 788 l 972 569 b 644 756 935 684 828 756 b 263 447 415 756 263 649 b 644 138 263 244 415 138 b 972 324 827 138 934 209 l 1155 324 "},"Č":{"ha":1229,"x_min":0,"x_max":0,"o":"m 735 1014 l 526 1014 l 526 1173 l 735 1173 m 1155 324 b 644 -18 1131 106 946 -18 b 74 447 307 -18 74 138 b 644 917 74 756 307 917 b 1156 569 947 917 1132 788 l 972 569 b 644 756 935 684 828 756 b 263 447 415 756 263 649 b 644 138 263 244 415 138 b 972 324 827 138 934 209 l 1155 324 "},"Ç":{"ha":1229,"x_min":0,"x_max":0,"o":"m 1155 324 b 644 -18 1131 106 946 -18 b 74 447 307 -18 74 138 b 644 917 74 756 307 917 b 1156 569 947 917 1132 788 l 972 569 b 644 756 935 684 828 756 b 263 447 415 756 263 649 b 644 138 263 244 415 138 b 972 324 827 138 934 209 l 1155 324 m 748 -277 l 539 -277 l 539 -118 l 748 -118 "},"Ċ":{"ha":1229,"x_min":0,"x_max":0,"o":"m 735 1014 l 526 1014 l 526 1173 l 735 1173 m 1155 324 b 644 -18 1131 106 946 -18 b 74 447 307 -18 74 138 b 644 917 74 756 307 917 b 1156 569 947 917 1132 788 l 972 569 b 644 756 935 684 828 756 b 263 447 415 756 263 649 b 644 138 263 244 415 138 b 972 324 827 138 934 209 l 1155 324 "},"D":{"ha":1221,"x_min":0,"x_max":0,"o":"m 621 898 b 1147 452 1025 898 1147 690 b 621 0 1147 214 1007 0 l 107 0 l 107 898 l 621 898 m 616 160 b 959 452 882 160 959 300 b 616 738 959 604 882 738 l 292 738 l 292 160 l 616 160 "},"Ð":{"ha":1221,"x_min":0,"x_max":0,"o":"m 621 898 b 1147 452 1025 898 1147 690 b 621 0 1147 214 1007 0 l 107 0 l 107 411 l -7 411 l -7 496 l 107 496 l 107 898 l 621 898 m 616 160 b 959 452 882 160 959 300 b 616 738 959 604 882 738 l 292 738 l 292 496 l 493 496 l 493 411 l 292 411 l 292 160 l 616 160 "},"Ď":{"ha":1221,"x_min":0,"x_max":0,"o":"m 675 1038 l 465 1038 l 465 1197 l 675 1197 m 621 898 b 1147 452 1025 898 1147 690 b 621 0 1147 214 1007 0 l 107 0 l 107 898 l 621 898 m 616 160 b 959 452 882 160 959 300 b 616 738 959 604 882 738 l 292 738 l 292 160 l 616 160 "},"Đ":{"ha":1221,"x_min":0,"x_max":0,"o":"m 621 898 b 1147 452 1025 898 1147 690 b 621 0 1147 214 1007 0 l 107 0 l 107 411 l -7 411 l -7 496 l 107 496 l 107 898 l 621 898 m 616 160 b 959 452 882 160 959 300 b 616 738 959 604 882 738 l 292 738 l 292 496 l 493 496 l 493 411 l 292 411 l 292 160 l 616 160 "},"E":{"ha":1068,"x_min":0,"x_max":0,"o":"m 985 154 l 985 0 l 107 0 l 107 898 l 983 898 l 983 744 l 292 744 l 292 505 l 858 505 l 858 390 l 292 390 l 292 154 "},"É":{"ha":1068,"x_min":0,"x_max":0,"o":"m 656 1010 l 446 1010 l 446 1169 l 656 1169 m 985 154 l 985 0 l 107 0 l 107 898 l 983 898 l 983 744 l 292 744 l 292 505 l 858 505 l 858 390 l 292 390 l 292 154 "},"Ě":{"ha":1068,"x_min":0,"x_max":0,"o":"m 656 1010 l 446 1010 l 446 1169 l 656 1169 m 985 154 l 985 0 l 107 0 l 107 898 l 983 898 l 983 744 l 292 744 l 292 505 l 858 505 l 858 390 l 292 390 l 292 154 "},"Ê":{"ha":1068,"x_min":0,"x_max":0,"o":"m 656 1010 l 446 1010 l 446 1169 l 656 1169 m 985 154 l 985 0 l 107 0 l 107 898 l 984 898 l 984 744 l 292 744 l 292 505 l 858 505 l 858 390 l 292 390 l 292 154 "},"Ë":{"ha":1068,"x_min":0,"x_max":0,"o":"m 505 1009 l 296 1009 l 296 1168 l 505 1168 m 806 1009 l 597 1009 l 597 1168 l 806 1168 m 985 154 l 985 0 l 107 0 l 107 898 l 983 898 l 983 744 l 292 744 l 292 505 l 858 505 l 858 390 l 292 390 l 292 154 "},"Ė":{"ha":1068,"x_min":0,"x_max":0,"o":"m 656 1010 l 446 1010 l 446 1169 l 656 1169 m 985 154 l 985 0 l 107 0 l 107 898 l 983 898 l 983 744 l 292 744 l 292 505 l 858 505 l 858 390 l 292 390 l 292 154 "},"È":{"ha":1068,"x_min":0,"x_max":0,"o":"m 656 1169 l 656 1010 l 446 1010 l 446 1169 m 985 154 l 985 0 l 107 0 l 107 898 l 983 898 l 983 744 l 292 744 l 292 505 l 858 505 l 858 390 l 292 390 l 292 154 "},"Ē":{"ha":1068,"x_min":0,"x_max":0,"o":"m 656 1010 l 446 1010 l 446 1169 l 656 1169 m 985 154 l 985 0 l 107 0 l 107 898 l 983 898 l 983 744 l 292 744 l 292 505 l 858 505 l 858 390 l 292 390 l 292 154 "},"Ę":{"ha":1068,"x_min":0,"x_max":0,"o":"m 985 154 l 985 0 l 107 0 l 107 898 l 983 898 l 983 744 l 292 744 l 292 505 l 858 505 l 858 390 l 292 390 l 292 154 m 999 -278 l 789 -278 l 789 -119 l 999 -119 "},"F":{"ha":1029,"x_min":0,"x_max":0,"o":"m 292 742 l 292 504 l 858 504 l 858 357 l 292 357 l 292 0 l 107 0 l 107 898 l 983 898 l 983 742 "},"G":{"ha":1275,"x_min":0,"x_max":0,"o":"m 1023 0 b 1047 247 1023 67 1034 163 b 623 -18 991 80 847 -18 b 74 447 302 -18 74 145 b 644 917 74 750 304 917 b 1150 573 947 917 1133 784 l 972 573 b 644 754 936 680 833 754 b 263 447 401 754 263 634 b 651 140 263 259 400 140 b 989 313 829 140 939 208 l 753 310 l 753 427 l 1182 427 l 1187 0 "},"Ğ":{"ha":1274,"x_min":0,"x_max":0,"o":"m 749 1014 l 539 1014 l 539 1173 l 749 1173 m 1023 0 b 1047 247 1023 67 1034 163 b 623 -18 991 80 847 -18 b 74 447 302 -18 74 145 b 644 917 74 750 304 917 b 1150 573 947 917 1133 784 l 972 573 b 644 754 936 680 833 754 b 263 447 401 754 263 634 b 651 140 263 259 400 140 b 989 313 829 140 939 208 l 753 310 l 753 427 l 1182 427 l 1187 0 "},"Ģ":{"ha":1274,"x_min":0,"x_max":0,"o":"m 1023 0 b 1047 247 1023 67 1034 163 b 623 -18 991 80 847 -18 b 74 447 302 -18 74 145 b 644 917 74 750 304 917 b 1150 573 947 917 1133 784 l 972 573 b 644 754 936 680 833 754 b 263 447 401 754 263 634 b 651 140 263 259 400 140 b 989 313 829 140 939 208 l 753 310 l 753 427 l 1182 427 l 1187 0 m 539 -118 l 749 -118 l 749 -277 l 539 -277 "},"Ġ":{"ha":1274,"x_min":0,"x_max":0,"o":"m 749 1014 l 539 1014 l 539 1173 l 749 1173 m 1023 0 b 1047 247 1023 67 1034 163 b 623 -18 991 80 847 -18 b 74 447 302 -18 74 145 b 644 917 74 750 304 917 b 1150 573 947 917 1133 784 l 972 573 b 644 754 936 680 833 754 b 263 447 401 754 263 634 b 651 140 263 259 400 140 b 989 313 829 140 939 208 l 753 310 l 753 427 l 1182 427 l 1187 0 "},"H":{"ha":1243,"x_min":0,"x_max":0,"o":"m 1136 898 l 1136 0 l 951 0 l 951 373 l 292 373 l 292 0 l 107 0 l 107 898 l 292 898 l 292 528 l 951 528 l 951 898 "},"Ħ":{"ha":1243,"x_min":0,"x_max":0,"o":"m 1192 612 l 1137 612 l 1137 0 l 952 0 l 952 373 l 292 373 l 292 0 l 107 0 l 107 612 l 51 612 l 51 716 l 107 716 l 107 898 l 292 898 l 292 716 l 952 716 l 952 898 l 1137 898 l 1137 716 l 1192 716 m 952 612 l 292 612 l 292 528 l 952 528 "},"I":{"ha":450,"x_min":0,"x_max":0,"o":"m 317 898 l 317 0 l 132 0 l 132 898 "},"Ĳ":{"ha":1046,"x_min":0,"x_max":0,"o":"m 313 401 l 133 401 l 133 898 l 313 898 m 939 898 l 939 339 b 539 -14 939 148 800 -14 b 134 307 336 -14 140 88 l 308 307 b 539 142 328 197 419 142 b 755 352 690 142 755 231 l 755 898 "},"Í":{"ha":450,"x_min":0,"x_max":0,"o":"m 330 1010 l 120 1010 l 120 1169 l 330 1169 m 317 898 l 317 0 l 132 0 l 132 898 "},"Î":{"ha":450,"x_min":0,"x_max":0,"o":"m 330 1010 l 120 1010 l 120 1169 l 330 1169 m 317 898 l 317 0 l 132 0 l 132 898 "},"Ï":{"ha":450,"x_min":0,"x_max":0,"o":"m 179 1009 l -30 1009 l -30 1168 l 179 1168 m 480 1009 l 271 1009 l 271 1168 l 480 1168 m 317 898 l 317 0 l 132 0 l 132 898 "},"İ":{"ha":450,"x_min":0,"x_max":0,"o":"m 330 1010 l 120 1010 l 120 1169 l 330 1169 m 317 898 l 317 0 l 132 0 l 132 898 "},"Ì":{"ha":450,"x_min":0,"x_max":0,"o":"m 330 1169 l 330 1010 l 120 1010 l 120 1169 m 317 898 l 317 0 l 132 0 l 132 898 "},"Ī":{"ha":450,"x_min":0,"x_max":0,"o":"m 330 1010 l 120 1010 l 120 1169 l 330 1169 m 317 898 l 317 0 l 132 0 l 132 898 "},"Į":{"ha":450,"x_min":0,"x_max":0,"o":"m 317 898 l 317 0 l 132 0 l 132 898 m 329 -278 l 119 -278 l 119 -119 l 329 -119 "},"J":{"ha":949,"x_min":0,"x_max":0,"o":"m 842 898 l 842 339 b 441 -14 842 148 703 -14 b 36 307 239 -14 43 88 l 211 307 b 441 142 231 197 322 142 b 657 352 593 142 657 231 l 657 898 "},"K":{"ha":1131,"x_min":0,"x_max":0,"o":"m 829 0 l 292 471 l 292 0 l 107 0 l 107 898 l 292 898 l 292 473 l 757 898 l 1032 898 l 541 476 l 1096 0 "},"Ķ":{"ha":1131,"x_min":0,"x_max":0,"o":"m 1096 0 l 829 0 l 292 471 l 292 0 l 107 0 l 107 898 l 292 898 l 292 473 l 757 898 l 1032 898 l 541 476 m 430 -118 l 639 -118 l 639 -277 l 430 -277 "},"L":{"ha":954,"x_min":0,"x_max":0,"o":"m 888 154 l 888 -1 l 219 -1 l 219 0 l 107 0 l 107 898 l 292 898 l 292 154 "},"Ĺ":{"ha":954,"x_min":0,"x_max":0,"o":"m 647 1010 l 437 1010 l 437 1169 l 647 1169 m 888 154 l 888 -1 l 219 -1 l 219 0 l 107 0 l 107 898 l 292 898 l 292 154 "},"Ľ":{"ha":954,"x_min":0,"x_max":0,"o":"m 647 1010 l 437 1010 l 437 1169 l 647 1169 m 888 154 l 888 -1 l 219 -1 l 219 0 l 107 0 l 107 898 l 292 898 l 292 154 "},"Ļ":{"ha":954,"x_min":0,"x_max":0,"o":"m 888 154 l 888 -1 l 219 -1 l 219 0 l 107 0 l 107 898 l 292 898 l 292 154 m 437 -118 l 647 -118 l 647 -277 l 437 -277 "},"Ŀ":{"ha":954,"x_min":0,"x_max":0,"o":"m 888 154 l 888 -1 l 219 -1 l 219 0 l 107 0 l 107 898 l 292 898 l 292 154 m 699 427 l 489 427 l 489 586 l 699 586 "},"Ł":{"ha":954,"x_min":0,"x_max":0,"o":"m 888 154 l 888 -1 l 219 -1 l 219 0 l 107 0 l 107 310 l 5 241 l -43 315 l 107 418 l 107 898 l 292 898 l 292 545 l 523 703 l 575 630 l 292 437 l 292 154 "},"M":{"ha":1526,"x_min":0,"x_max":0,"o":"m 1419 898 l 1419 0 l 1234 0 l 1234 572 l 866 0 l 660 0 l 292 570 l 292 0 l 107 0 l 107 898 l 292 898 l 762 160 l 1234 898 "},"N":{"ha":1251,"x_min":0,"x_max":0,"o":"m 1145 898 l 1145 0 l 960 0 l 292 651 l 292 0 l 107 0 l 107 898 l 292 898 l 960 244 l 960 898 "},"Ń":{"ha":1251,"x_min":0,"x_max":0,"o":"m 739 1010 l 530 1010 l 530 1169 l 739 1169 m 1145 898 l 1145 0 l 960 0 l 292 651 l 292 0 l 107 0 l 107 898 l 292 898 l 960 244 l 960 898 "},"Ň":{"ha":1251,"x_min":0,"x_max":0,"o":"m 739 1010 l 530 1010 l 530 1169 l 739 1169 m 1145 898 l 1145 0 l 960 0 l 292 651 l 292 0 l 107 0 l 107 898 l 292 898 l 960 244 l 960 898 "},"Ņ":{"ha":1251,"x_min":0,"x_max":0,"o":"m 1145 898 l 1145 0 l 960 0 l 292 651 l 292 0 l 107 0 l 107 898 l 292 898 l 960 244 l 960 898 m 534 -118 l 743 -118 l 743 -277 l 534 -277 "},"Ŋ":{"ha":1251,"x_min":0,"x_max":0,"o":"m 1145 898 l 1145 -45 b 785 -292 1145 -248 941 -292 l 785 -142 b 960 0 877 -142 960 -118 l 292 651 l 292 0 l 107 0 l 107 898 l 292 898 l 960 244 l 960 898 "},"Ñ":{"ha":1251,"x_min":0,"x_max":0,"o":"m 739 1010 l 530 1010 l 530 1169 l 739 1169 m 1145 898 l 1145 0 l 960 0 l 292 651 l 292 0 l 107 0 l 107 898 l 292 898 l 960 244 l 960 898 "},"O":{"ha":1283,"x_min":0,"x_max":0,"o":"m 642 -18 b 74 449 283 -18 74 157 b 642 917 74 741 283 917 b 1210 449 1001 917 1210 741 b 642 -18 1210 157 1001 -18 m 642 142 b 1016 449 849 142 1016 241 b 642 754 1016 654 849 754 b 263 449 435 754 263 654 b 642 142 263 241 435 142 "},"Ó":{"ha":1283,"x_min":0,"x_max":0,"o":"m 747 1014 l 537 1014 l 537 1173 l 747 1173 m 642 -18 b 74 449 283 -18 74 157 b 642 917 74 741 283 917 b 1210 449 1001 917 1210 741 b 642 -18 1210 157 1001 -18 m 642 142 b 1016 449 849 142 1016 241 b 642 754 1016 654 849 754 b 263 449 435 754 263 654 b 642 142 263 241 435 142 "},"Ô":{"ha":1283,"x_min":0,"x_max":0,"o":"m 747 1014 l 537 1014 l 537 1173 l 747 1173 m 642 -18 b 74 449 283 -18 74 157 b 642 917 74 741 283 917 b 1210 449 1001 917 1210 741 b 642 -18 1210 157 1001 -18 m 642 142 b 1017 449 849 142 1017 241 b 642 754 1017 654 849 754 b 263 449 435 754 263 654 b 642 142 263 241 435 142 "},"Ö":{"ha":1285,"x_min":0,"x_max":0,"o":"m 1004 832 b 1210 449 1137 753 1210 622 b 642 -18 1210 157 1001 -18 b 74 449 283 -18 74 157 b 280 832 74 622 147 753 l 176 832 l 176 991 l 385 991 l 385 880 b 642 917 459 904 545 917 b 916 873 747 917 839 902 l 916 991 l 1126 991 l 1126 832 l 1004 832 m 642 142 b 1016 449 849 142 1016 241 b 642 754 1016 654 849 754 b 263 449 435 754 263 654 b 642 142 263 241 435 142 "},"Ò":{"ha":1283,"x_min":0,"x_max":0,"o":"m 747 1173 l 747 1014 l 537 1014 l 537 1173 m 642 -18 b 74 449 283 -18 74 157 b 642 917 74 741 283 917 b 1210 449 1001 917 1210 741 b 642 -18 1210 157 1001 -18 m 642 142 b 1016 449 849 142 1016 241 b 642 754 1016 654 849 754 b 263 449 435 754 263 654 b 642 142 263 241 435 142 "},"Ő":{"ha":1283,"x_min":0,"x_max":0,"o":"m 587 1013 l 377 1013 l 377 1172 l 587 1172 m 888 1013 l 678 1013 l 678 1172 l 888 1172 m 642 -18 b 74 449 283 -18 74 157 b 642 917 74 741 283 917 b 1210 449 1001 917 1210 741 b 642 -18 1210 157 1001 -18 m 642 142 b 1016 449 849 142 1016 241 b 642 754 1016 654 849 754 b 263 449 435 754 263 654 b 642 142 263 241 435 142 "},"Ō":{"ha":1283,"x_min":0,"x_max":0,"o":"m 747 1014 l 537 1014 l 537 1173 l 747 1173 m 642 -18 b 74 449 283 -18 74 157 b 642 917 74 741 283 917 b 1210 449 1001 917 1210 741 b 642 -18 1210 157 1001 -18 m 642 142 b 1016 449 849 142 1016 241 b 642 754 1016 654 849 754 b 263 449 435 754 263 654 b 642 142 263 241 435 142 "},"Ø":{"ha":1283,"x_min":0,"x_max":0,"o":"m 926 870 b 1210 449 1109 799 1210 652 b 642 -18 1210 157 1001 -18 b 446 2 571 -18 505 -11 l 401 -79 l 329 -34 l 363 27 b 74 449 177 96 74 244 b 642 917 74 741 283 917 b 842 895 715 917 782 909 l 880 963 l 955 921 l 926 870 m 263 449 b 446 178 263 313 337 223 l 758 743 b 642 754 722 750 683 754 b 263 449 435 754 263 654 m 642 142 b 1016 449 849 142 1016 241 b 841 716 1016 582 947 670 l 529 153 b 642 142 565 146 603 142 "},"Õ":{"ha":1283,"x_min":0,"x_max":0,"o":"m 747 1014 l 537 1014 l 537 1173 l 747 1173 m 642 -18 b 74 449 283 -18 74 157 b 642 917 74 741 283 917 b 1210 449 1001 917 1210 741 b 642 -18 1210 157 1001 -18 m 642 142 b 1016 449 849 142 1016 241 b 642 754 1016 654 849 754 b 263 449 435 754 263 654 b 642 142 263 241 435 142 "},"Œ":{"ha":1774,"x_min":0,"x_max":0,"o":"m 1691 0 l 828 0 b 642 -18 772 -12 709 -18 b 74 449 283 -18 74 157 b 642 917 74 741 283 917 b 828 898 709 917 772 910 l 1689 898 l 1689 742 l 1111 742 b 1207 513 1164 680 1196 603 l 1563 513 l 1563 383 l 1206 383 b 1111 156 1196 294 1163 217 l 1691 156 m 263 449 b 642 142 263 241 435 142 b 1016 449 849 142 1016 241 b 642 754 1016 654 849 754 b 263 449 435 754 263 654 "},"P":{"ha":1089,"x_min":0,"x_max":0,"o":"m 661 898 b 1023 589 863 898 1023 805 b 661 291 1023 373 863 291 l 289 291 l 289 0 l 104 0 l 104 898 l 661 898 m 678 441 b 838 589 772 441 838 495 b 678 738 838 687 772 738 l 289 738 l 289 441 l 678 441 "},"Þ":{"ha":1054,"x_min":0,"x_max":0,"o":"m 626 750 b 988 449 828 750 988 665 b 626 149 988 233 828 149 l 289 149 l 289 0 l 104 0 l 104 898 l 289 898 l 289 750 l 626 750 m 643 301 b 803 449 737 301 803 355 b 643 598 803 547 737 598 l 289 598 l 289 301 l 643 301 "},"Q":{"ha":1283,"x_min":0,"x_max":0,"o":"m 1210 449 b 732 -14 1210 183 1036 13 l 732 -278 l 552 -278 l 552 -14 b 74 449 248 13 74 183 b 642 917 74 741 283 917 b 1210 449 1001 917 1210 741 m 642 142 b 1016 449 849 142 1016 241 b 642 754 1016 654 849 754 b 263 449 435 754 263 654 b 642 142 263 241 435 142 "},"R":{"ha":1147,"x_min":0,"x_max":0,"o":"m 834 391 b 1042 214 974 380 1042 341 l 1042 0 l 857 0 l 857 201 b 631 331 856 304 777 331 l 292 331 l 292 0 l 107 0 l 107 898 l 716 898 b 1061 626 924 898 1061 815 b 834 391 1061 474 963 413 m 716 477 b 876 615 810 477 875 529 b 716 738 877 697 811 738 l 292 738 l 292 477 "},"Ŕ":{"ha":1147,"x_min":0,"x_max":0,"o":"m 671 1010 l 462 1010 l 462 1169 l 671 1169 m 834 391 b 1042 214 974 380 1042 341 l 1042 0 l 857 0 l 857 201 b 631 331 856 304 777 331 l 292 331 l 292 0 l 107 0 l 107 898 l 716 898 b 1061 626 924 898 1061 815 b 834 391 1061 474 963 413 m 716 477 b 876 615 810 477 875 529 b 716 738 877 697 811 738 l 292 738 l 292 477 "},"Ř":{"ha":1147,"x_min":0,"x_max":0,"o":"m 671 1010 l 462 1010 l 462 1169 l 671 1169 m 834 391 b 1042 214 974 380 1042 341 l 1042 0 l 857 0 l 857 201 b 631 331 856 304 777 331 l 292 331 l 292 0 l 107 0 l 107 898 l 716 898 b 1061 626 924 898 1061 815 b 834 391 1061 474 963 413 m 716 477 b 876 615 810 477 875 529 b 716 738 877 697 811 738 l 292 738 l 292 477 "},"Ŗ":{"ha":1147,"x_min":0,"x_max":0,"o":"m 834 391 b 1042 214 974 380 1042 341 l 1042 0 l 857 0 l 857 201 b 631 331 856 304 777 331 l 292 331 l 292 0 l 107 0 l 107 898 l 716 898 b 1061 626 924 898 1061 815 b 834 391 1061 474 963 413 m 716 477 b 876 615 810 477 875 529 b 716 738 877 697 811 738 l 292 738 l 292 477 m 458 -125 l 667 -125 l 667 -284 l 458 -284 "},"S":{"ha":964,"x_min":0,"x_max":0,"o":"m 245 303 b 521 137 256 205 372 138 b 726 260 658 136 726 183 b 444 390 726 343 631 364 b 68 650 234 424 68 482 b 471 917 68 810 207 917 b 871 607 729 917 873 798 l 690 607 b 462 761 684 715 591 761 b 254 646 340 761 254 728 b 548 506 254 556 346 540 b 908 253 750 475 908 426 b 515 -19 908 84 786 -19 b 57 303 186 -19 45 186 "},"Ś":{"ha":964,"x_min":0,"x_max":0,"o":"m 575 1014 l 366 1014 l 366 1173 l 575 1173 m 245 303 b 521 137 256 205 372 138 b 726 260 658 136 726 183 b 444 390 726 343 631 364 b 68 650 234 424 68 482 b 471 917 68 810 207 917 b 871 607 729 917 873 798 l 690 607 b 462 761 684 715 591 761 b 254 646 340 761 254 728 b 548 506 254 556 346 540 b 908 253 750 475 908 426 b 515 -19 908 84 786 -19 b 57 303 186 -19 45 186 "},"Š":{"ha":964,"x_min":0,"x_max":0,"o":"m 575 1014 l 366 1014 l 366 1173 l 575 1173 m 245 303 b 521 137 256 205 372 138 b 726 260 658 136 726 183 b 444 390 726 343 631 364 b 68 650 234 424 68 482 b 471 917 68 810 207 917 b 871 607 729 917 873 798 l 690 607 b 462 761 684 715 591 761 b 254 646 340 761 254 728 b 548 506 254 556 346 540 b 908 253 750 475 908 426 b 515 -19 908 84 786 -19 b 57 303 186 -19 45 186 "},"Ş":{"ha":964,"x_min":0,"x_max":0,"o":"m 245 303 b 521 137 256 205 372 138 b 726 260 658 136 726 183 b 444 390 726 343 631 364 b 68 650 234 424 68 482 b 471 917 68 810 207 917 b 871 607 729 917 873 798 l 690 607 b 462 761 684 715 591 761 b 254 646 340 761 254 728 b 548 506 254 556 346 540 b 908 253 750 475 908 426 b 515 -19 908 84 786 -19 b 57 303 186 -19 45 186 m 583 -284 l 373 -284 l 373 -125 l 583 -125 "},"Ș":{"ha":964,"x_min":0,"x_max":0,"o":"m 245 303 b 521 137 256 205 372 138 b 726 260 658 136 726 183 b 444 390 726 343 631 364 b 68 650 234 424 68 482 b 471 917 68 810 207 917 b 871 607 729 917 873 798 l 690 607 b 462 761 684 715 591 761 b 254 646 340 761 254 728 b 548 506 254 556 346 540 b 908 253 750 475 908 426 b 515 -19 908 84 786 -19 b 57 303 186 -19 45 186 m 583 -284 l 373 -284 l 373 -125 l 583 -125 "},"T":{"ha":1003,"x_min":0,"x_max":0,"o":"m 975 742 l 594 742 l 594 0 l 409 0 l 409 742 l 27 742 l 27 898 l 975 898 "},"Ŧ":{"ha":1003,"x_min":0,"x_max":0,"o":"m 606 1010 l 397 1010 l 397 1169 l 606 1169 m 975 742 l 594 742 l 594 0 l 409 0 l 409 742 l 27 742 l 27 898 l 975 898 "},"Ť":{"ha":1003,"x_min":0,"x_max":0,"o":"m 606 1010 l 397 1010 l 397 1169 l 606 1169 m 975 742 l 594 742 l 594 0 l 409 0 l 409 742 l 27 742 l 27 898 l 975 898 "},"Ţ":{"ha":1003,"x_min":0,"x_max":0,"o":"m 975 742 l 594 742 l 594 0 l 409 0 l 409 742 l 27 742 l 27 898 l 975 898 m 397 -118 l 606 -118 l 606 -277 l 397 -277 "},"Ț":{"ha":1003,"x_min":0,"x_max":0,"o":"m 975 742 l 594 742 l 594 0 l 409 0 l 409 742 l 27 742 l 27 898 l 975 898 m 397 -118 l 606 -118 l 606 -277 l 397 -277 "},"U":{"ha":1224,"x_min":0,"x_max":0,"o":"m 1116 898 l 1116 378 b 613 -18 1116 79 885 -18 b 107 378 331 -18 107 79 l 107 898 l 292 898 l 292 397 b 613 143 292 187 427 143 b 931 397 794 143 931 187 l 931 898 "},"Ú":{"ha":1224,"x_min":0,"x_max":0,"o":"m 718 1010 l 508 1010 l 508 1169 l 718 1169 m 1116 898 l 1116 378 b 613 -18 1116 79 885 -18 b 107 378 331 -18 107 79 l 107 898 l 292 898 l 292 397 b 613 143 292 187 427 143 b 931 397 794 143 931 187 l 931 898 "},"Û":{"ha":1224,"x_min":0,"x_max":0,"o":"m 718 1010 l 508 1010 l 508 1169 l 718 1169 m 1116 898 l 1116 378 b 613 -18 1116 79 885 -18 b 107 378 331 -18 107 79 l 107 898 l 292 898 l 292 397 b 613 143 292 187 427 143 b 931 397 794 143 931 187 l 931 898 "},"Ü":{"ha":1224,"x_min":0,"x_max":0,"o":"m 566 740 l 356 740 l 356 899 l 566 899 m 867 740 l 657 740 l 657 899 l 867 899 m 1116 898 l 1116 378 b 613 -18 1116 79 885 -18 b 107 378 331 -18 107 79 l 107 898 l 292 898 l 292 397 b 613 143 292 187 427 143 b 931 397 794 143 931 187 l 931 898 "},"Ù":{"ha":1224,"x_min":0,"x_max":0,"o":"m 718 1169 l 718 1010 l 508 1010 l 508 1169 m 1116 898 l 1116 378 b 613 -18 1116 79 885 -18 b 107 378 331 -18 107 79 l 107 898 l 292 898 l 292 397 b 613 143 292 187 427 143 b 931 397 794 143 931 187 l 931 898 "},"Ű":{"ha":1224,"x_min":0,"x_max":0,"o":"m 566 740 l 356 740 l 356 899 l 566 899 m 867 740 l 657 740 l 657 899 l 867 899 m 1116 898 l 1116 378 b 613 -18 1116 79 885 -18 b 107 378 331 -18 107 79 l 107 898 l 292 898 l 292 397 b 613 143 292 187 427 143 b 931 397 794 143 931 187 l 931 898 "},"Ū":{"ha":1224,"x_min":0,"x_max":0,"o":"m 718 1010 l 508 1010 l 508 1169 l 718 1169 m 1116 898 l 1116 378 b 613 -18 1116 79 885 -18 b 107 378 331 -18 107 79 l 107 898 l 292 898 l 292 397 b 613 143 292 187 427 143 b 931 397 794 143 931 187 l 931 898 "},"Ų":{"ha":1224,"x_min":0,"x_max":0,"o":"m 1116 898 l 1116 378 b 613 -18 1116 79 885 -18 b 107 378 331 -18 107 79 l 107 898 l 292 898 l 292 397 b 613 143 292 187 427 143 b 931 397 794 143 931 187 l 931 898 m 1126 -284 l 917 -284 l 917 -126 l 1126 -126 "},"Ů":{"ha":1224,"x_min":0,"x_max":0,"o":"m 718 1010 l 508 1010 l 508 1169 l 718 1169 m 1116 898 l 1116 378 b 613 -18 1116 79 885 -18 b 107 378 331 -18 107 79 l 107 898 l 292 898 l 292 397 b 613 143 292 187 427 143 b 931 397 794 143 931 187 l 931 898 "},"V":{"ha":1076,"x_min":0,"x_max":0,"o":"m 1049 898 l 656 0 l 424 0 l 28 898 l 232 898 l 540 161 l 848 898 "},"W":{"ha":1806,"x_min":0,"x_max":0,"o":"m 1778 898 l 1403 0 l 1176 0 l 905 703 l 634 0 l 407 0 l 28 898 l 232 898 l 523 178 l 798 898 l 1011 898 l 1287 178 l 1577 898 "},"Ẃ":{"ha":1806,"x_min":0,"x_max":0,"o":"m 1014 1031 l 804 1031 l 804 1190 l 1014 1190 m 1778 898 l 1403 0 l 1176 0 l 905 703 l 634 0 l 407 0 l 28 898 l 232 898 l 523 178 l 798 898 l 1011 898 l 1287 178 l 1577 898 "},"Ŵ":{"ha":1806,"x_min":0,"x_max":0,"o":"m 1014 1031 l 804 1031 l 804 1190 l 1014 1190 m 1778 898 l 1403 0 l 1176 0 l 905 703 l 634 0 l 407 0 l 28 898 l 232 898 l 523 178 l 798 898 l 1011 898 l 1287 178 l 1577 898 "},"Ẅ":{"ha":1806,"x_min":0,"x_max":0,"o":"m 1414 782 l 1205 782 l 1205 941 l 1414 941 m 605 782 l 395 782 l 395 941 l 605 941 m 1778 898 l 1403 0 l 1176 0 l 905 703 l 634 0 l 407 0 l 28 898 l 232 898 l 523 178 l 798 898 l 1011 898 l 1287 178 l 1577 898 "},"Ẁ":{"ha":1806,"x_min":0,"x_max":0,"o":"m 1014 1190 l 1014 1031 l 804 1031 l 804 1190 m 1778 898 l 1403 0 l 1176 0 l 905 703 l 634 0 l 407 0 l 28 898 l 232 898 l 523 178 l 798 898 l 1011 898 l 1287 178 l 1577 898 "},"X":{"ha":1083,"x_min":0,"x_max":0,"o":"m 795 0 l 540 329 l 279 0 l 54 0 l 437 456 l 68 898 l 293 898 l 544 584 l 800 898 l 1025 898 l 647 458 l 1029 0 "},"Y":{"ha":1028,"x_min":0,"x_max":0,"o":"m 1002 898 l 606 283 l 606 0 l 421 0 l 421 283 l 26 898 l 240 898 l 516 452 l 788 898 "},"Ý":{"ha":1028,"x_min":0,"x_max":0,"o":"m 619 1010 l 409 1010 l 409 1169 l 619 1169 m 1002 898 l 606 283 l 606 0 l 421 0 l 421 283 l 26 898 l 240 898 l 516 452 l 788 898 "},"Ŷ":{"ha":1028,"x_min":0,"x_max":0,"o":"m 619 1010 l 409 1010 l 409 1169 l 619 1169 m 1002 898 l 606 283 l 606 0 l 421 0 l 421 283 l 26 898 l 240 898 l 516 452 l 788 898 "},"Ÿ":{"ha":1028,"x_min":0,"x_max":0,"o":"m 468 1009 l 259 1009 l 259 1168 l 468 1168 m 769 1009 l 560 1009 l 560 1168 l 769 1168 m 1002 898 l 606 283 l 606 0 l 421 0 l 421 283 l 26 898 l 240 898 l 516 452 l 788 898 "},"Ỳ":{"ha":1028,"x_min":0,"x_max":0,"o":"m 619 1169 l 619 1010 l 409 1010 l 409 1169 m 1002 898 l 606 283 l 606 0 l 421 0 l 421 283 l 26 898 l 240 898 l 516 452 l 788 898 "},"Z":{"ha":1140,"x_min":0,"x_max":0,"o":"m 1053 744 l 315 154 l 1053 154 l 1053 0 l 87 0 l 87 154 l 825 744 l 87 744 l 87 898 l 1053 898 "},"Ź":{"ha":1140,"x_min":0,"x_max":0,"o":"m 675 1031 l 466 1031 l 466 1190 l 675 1190 m 1053 744 l 315 154 l 1053 154 l 1053 0 l 87 0 l 87 154 l 825 744 l 87 744 l 87 898 l 1053 898 "},"Ž":{"ha":1140,"x_min":0,"x_max":0,"o":"m 675 1031 l 466 1031 l 466 1190 l 675 1190 m 1053 744 l 315 154 l 1053 154 l 1053 0 l 87 0 l 87 154 l 825 744 l 87 744 l 87 898 l 1053 898 "},"Ż":{"ha":1140,"x_min":0,"x_max":0,"o":"m 675 1031 l 466 1031 l 466 1190 l 675 1190 m 1053 744 l 315 154 l 1053 154 l 1053 0 l 87 0 l 87 154 l 825 744 l 87 744 l 87 898 l 1053 898 "},"a":{"ha":1003,"x_min":0,"x_max":0,"o":"m 923 690 l 923 0 l 755 0 b 743 178 755 0 743 96 l 743 221 b 420 -16 704 96 604 -16 b 51 344 213 -16 51 129 b 429 706 51 562 213 706 b 743 486 608 706 705 617 l 743 690 m 478 124 b 743 344 641 124 743 212 b 478 565 743 486 640 565 b 235 344 323 565 235 478 b 478 124 235 211 332 124 "},"á":{"ha":1003,"x_min":0,"x_max":0,"o":"m 582 837 l 373 837 l 373 996 l 582 996 m 923 690 l 923 0 l 755 0 b 743 178 755 0 743 96 l 743 221 b 420 -16 704 96 604 -16 b 51 344 213 -16 51 129 b 429 706 51 562 213 706 b 743 486 608 706 705 617 l 743 690 m 478 124 b 743 344 641 124 743 212 b 478 565 743 486 640 565 b 235 344 323 565 235 478 b 478 124 235 211 332 124 "},"ă":{"ha":1003,"x_min":0,"x_max":0,"o":"m 582 837 l 373 837 l 373 996 l 582 996 m 923 690 l 923 0 l 755 0 b 743 178 755 0 743 96 l 743 221 b 420 -16 704 96 604 -16 b 51 344 213 -16 51 129 b 429 706 51 562 213 706 b 743 486 608 706 705 617 l 743 690 m 478 124 b 743 344 641 124 743 212 b 478 565 743 486 640 565 b 235 344 323 565 235 478 b 478 124 235 211 332 124 "},"â":{"ha":1003,"x_min":0,"x_max":0,"o":"m 582 837 l 373 837 l 373 996 l 582 996 m 923 690 l 923 0 l 755 0 b 743 178 755 0 743 96 l 743 221 b 420 -16 704 96 604 -16 b 51 344 213 -16 51 129 b 429 706 51 562 213 706 b 743 486 608 706 705 617 l 743 690 m 478 124 b 743 344 641 124 743 212 b 478 565 743 486 640 565 b 235 344 323 565 235 478 b 478 124 235 211 332 124 "},"ä":{"ha":1003,"x_min":0,"x_max":0,"o":"m 432 836 l 222 836 l 222 995 l 432 995 m 733 836 l 524 836 l 524 995 l 733 995 m 923 690 l 923 0 l 755 0 b 743 178 755 0 743 96 l 743 221 b 420 -16 704 96 604 -16 b 51 344 213 -16 51 129 b 429 706 51 562 213 706 b 743 486 608 706 705 617 l 743 690 m 478 124 b 743 344 641 124 743 212 b 478 565 743 486 640 565 b 235 344 323 565 235 478 b 478 124 235 211 332 124 "},"à":{"ha":1003,"x_min":0,"x_max":0,"o":"m 583 996 l 583 837 l 373 837 l 373 996 m 923 690 l 923 0 l 755 0 b 743 178 755 0 743 96 l 743 221 b 420 -16 704 96 604 -16 b 51 344 213 -16 51 129 b 429 706 51 562 213 706 b 743 486 608 706 705 617 l 743 690 m 478 124 b 743 344 641 124 743 212 b 478 565 743 486 640 565 b 235 344 323 565 235 478 b 478 124 235 211 332 124 "},"ā":{"ha":1003,"x_min":0,"x_max":0,"o":"m 582 837 l 373 837 l 373 996 l 582 996 m 923 690 l 923 0 l 755 0 b 743 178 755 0 743 96 l 743 221 b 420 -16 704 96 604 -16 b 51 344 213 -16 51 129 b 429 706 51 562 213 706 b 743 486 608 706 705 617 l 743 690 m 478 124 b 743 344 641 124 743 212 b 478 565 743 486 640 565 b 235 344 323 565 235 478 b 478 124 235 211 332 124 "},"ą":{"ha":1003,"x_min":0,"x_max":0,"o":"m 923 690 l 923 0 l 755 0 b 743 178 755 0 743 96 l 743 221 b 420 -16 704 96 604 -16 b 51 344 213 -16 51 129 b 429 706 51 562 213 706 b 743 486 608 706 705 617 l 743 690 m 478 124 b 743 344 641 124 743 212 b 478 565 743 486 640 565 b 235 344 323 565 235 478 b 478 124 235 211 332 124 m 936 -278 l 727 -278 l 727 -119 l 936 -119 "},"å":{"ha":1003,"x_min":0,"x_max":0,"o":"m 582 837 l 373 837 l 373 996 l 582 996 m 923 690 l 923 0 l 755 0 b 743 178 755 0 743 96 l 743 221 b 420 -16 704 96 604 -16 b 51 344 213 -16 51 129 b 429 706 51 562 213 706 b 743 486 608 706 705 617 l 743 690 m 478 124 b 743 344 641 124 743 212 b 478 565 743 486 640 565 b 235 344 323 565 235 478 b 478 124 235 211 332 124 "},"ã":{"ha":1003,"x_min":0,"x_max":0,"o":"m 582 837 l 373 837 l 373 996 l 582 996 m 923 690 l 923 0 l 755 0 b 743 178 755 0 743 96 l 743 221 b 420 -16 704 96 604 -16 b 51 344 213 -16 51 129 b 429 706 51 562 213 706 b 743 486 608 706 705 617 l 743 690 m 478 124 b 743 344 641 124 743 212 b 478 565 743 486 640 565 b 235 344 323 565 235 478 b 478 124 235 211 332 124 "},"æ":{"ha":1760,"x_min":0,"x_max":0,"o":"m 1310 703 b 1708 314 1580 703 1719 577 l 1050 314 b 1311 118 1063 200 1155 118 b 1530 227 1426 118 1507 162 l 1704 227 b 1315 -19 1681 84 1550 -19 b 923 148 1137 -19 996 40 l 923 0 l 755 0 b 743 178 755 0 743 96 l 743 221 b 420 -16 704 96 604 -16 b 51 344 213 -16 51 129 b 429 706 51 562 213 706 b 743 486 608 706 705 617 l 743 690 l 923 690 l 923 535 b 1310 703 995 643 1132 703 m 1529 413 b 1301 566 1518 507 1437 566 b 1058 413 1168 566 1082 500 m 478 124 b 743 344 641 124 743 212 b 478 565 743 486 640 565 b 235 344 323 565 235 478 b 478 124 235 211 332 124 "},"b":{"ha":1035,"x_min":0,"x_max":0,"o":"m 615 706 b 984 344 828 706 984 562 b 615 -16 984 129 824 -16 b 292 221 431 -16 330 96 l 292 178 b 279 0 292 96 279 0 l 111 0 l 111 968 l 292 968 l 292 485 b 615 706 329 616 429 706 m 556 124 b 799 344 702 124 799 211 b 556 566 799 478 711 566 b 292 344 394 566 292 486 b 556 124 292 212 393 124 "},"c":{"ha":953,"x_min":0,"x_max":0,"o":"m 903 272 b 495 -16 888 91 738 -16 b 51 344 237 -16 51 107 b 495 706 51 579 237 706 b 901 419 737 706 885 598 l 736 419 b 495 565 705 510 610 565 b 233 344 354 565 233 489 b 495 126 233 199 352 126 b 738 272 619 126 706 180 l 903 272 "},"ć":{"ha":953,"x_min":0,"x_max":0,"o":"m 589 837 l 379 837 l 379 996 l 589 996 m 903 272 b 495 -16 888 91 738 -16 b 51 344 237 -16 51 107 b 495 706 51 579 237 706 b 901 419 737 706 885 598 l 736 419 b 495 565 705 510 610 565 b 233 344 354 565 233 489 b 495 126 233 199 352 126 b 738 272 619 126 706 180 l 903 272 "},"č":{"ha":953,"x_min":0,"x_max":0,"o":"m 589 837 l 379 837 l 379 996 l 589 996 m 903 272 b 495 -16 888 91 738 -16 b 51 344 237 -16 51 107 b 495 706 51 579 237 706 b 901 419 737 706 885 598 l 736 419 b 495 565 705 510 610 565 b 233 344 354 565 233 489 b 495 126 233 199 352 126 b 738 272 619 126 706 180 l 903 272 "},"ç":{"ha":953,"x_min":0,"x_max":0,"o":"m 903 272 b 495 -16 888 91 738 -16 b 51 344 237 -16 51 107 b 495 706 51 579 237 706 b 901 419 737 706 885 598 l 736 419 b 495 565 705 510 610 565 b 233 344 354 565 233 489 b 495 126 233 199 352 126 b 738 272 619 126 706 180 l 903 272 m 598 -291 l 388 -291 l 388 -132 l 598 -132 "},"ċ":{"ha":953,"x_min":0,"x_max":0,"o":"m 589 837 l 379 837 l 379 996 l 589 996 m 903 272 b 495 -16 888 91 738 -16 b 51 344 237 -16 51 107 b 495 706 51 579 237 706 b 901 419 737 706 885 598 l 736 419 b 495 565 705 510 610 565 b 233 344 354 565 233 489 b 495 126 233 199 352 126 b 738 272 619 126 706 180 l 903 272 "},"d":{"ha":1035,"x_min":0,"x_max":0,"o":"m 923 968 l 923 0 l 755 0 b 743 178 755 0 743 96 l 743 221 b 420 -16 704 96 604 -16 b 51 344 210 -16 51 129 b 420 706 51 562 206 706 b 743 485 605 706 705 616 l 743 968 m 478 124 b 743 344 641 124 743 212 b 478 566 743 486 640 566 b 235 344 323 566 235 478 b 478 124 235 211 332 124 "},"ð":{"ha":961,"x_min":0,"x_max":0,"o":"m 691 799 b 902 364 856 666 902 498 b 478 -16 902 142 726 -16 b 51 344 212 -16 51 129 b 411 693 51 562 206 693 b 723 522 568 693 672 626 b 224 852 674 672 534 788 l 252 984 b 598 862 395 956 509 913 l 732 984 l 808 902 l 691 799 m 486 124 b 743 341 629 124 743 207 b 482 555 743 478 622 555 b 235 339 328 555 235 471 b 486 124 235 205 333 124 "},"ď":{"ha":1035,"x_min":0,"x_max":0,"o":"m 582 837 l 373 837 l 373 996 l 582 996 m 923 968 l 923 0 l 755 0 b 743 178 755 0 743 96 l 743 221 b 420 -16 704 96 604 -16 b 51 344 210 -16 51 129 b 420 706 51 562 206 706 b 743 485 605 706 705 616 l 743 968 m 478 124 b 743 344 641 124 743 212 b 478 566 743 486 640 566 b 235 344 323 566 235 478 b 478 124 235 211 332 124 "},"đ":{"ha":1035,"x_min":0,"x_max":0,"o":"m 1015 792 l 923 792 l 923 0 l 755 0 b 743 178 755 0 743 96 l 743 221 b 420 -16 704 96 604 -16 b 51 344 210 -16 51 129 b 420 706 51 562 206 706 b 743 485 605 706 705 616 l 743 792 l 515 792 l 515 877 l 743 877 l 743 968 l 923 968 l 923 877 l 1015 877 m 478 124 b 743 344 641 124 743 212 b 478 566 743 486 640 566 b 235 344 323 566 235 478 b 478 124 235 211 332 124 "},"e":{"ha":942,"x_min":0,"x_max":0,"o":"m 887 230 b 498 -16 863 87 733 -16 b 51 344 233 -16 51 115 b 493 706 51 570 226 706 b 891 317 763 706 902 580 l 233 317 b 494 121 246 203 338 121 b 713 230 608 121 690 165 m 484 569 b 241 416 351 569 265 503 l 712 416 b 484 569 701 510 620 569 "},"é":{"ha":942,"x_min":0,"x_max":0,"o":"m 594 837 l 384 837 l 384 996 l 594 996 m 887 230 b 498 -16 863 87 733 -16 b 51 344 233 -16 51 115 b 493 706 51 570 226 706 b 891 317 763 706 902 580 l 233 317 b 494 121 246 203 338 121 b 713 230 608 121 690 165 m 484 569 b 241 416 351 569 265 503 l 712 416 b 484 569 701 510 620 569 "},"ě":{"ha":942,"x_min":0,"x_max":0,"o":"m 594 837 l 384 837 l 384 996 l 594 996 m 887 230 b 498 -16 863 87 733 -16 b 51 344 233 -16 51 115 b 493 706 51 570 226 706 b 891 317 763 706 902 580 l 233 317 b 494 121 246 203 338 121 b 713 230 608 121 690 165 m 484 569 b 241 416 351 569 265 503 l 712 416 b 484 569 701 510 620 569 "},"ê":{"ha":942,"x_min":0,"x_max":0,"o":"m 594 837 l 384 837 l 384 996 l 594 996 m 887 230 b 498 -16 864 87 733 -16 b 51 344 233 -16 51 115 b 493 706 51 570 226 706 b 891 317 763 706 902 580 l 233 317 b 494 121 246 203 338 121 b 713 230 608 121 690 165 m 484 569 b 241 416 351 569 265 503 l 712 416 b 484 569 701 510 620 569 "},"ë":{"ha":942,"x_min":0,"x_max":0,"o":"m 443 836 l 234 836 l 234 995 l 443 995 m 744 836 l 535 836 l 535 995 l 744 995 m 887 230 b 498 -16 863 87 733 -16 b 51 344 233 -16 51 115 b 493 706 51 570 226 706 b 891 317 763 706 902 580 l 233 317 b 494 121 246 203 338 121 b 713 230 608 121 690 165 m 484 569 b 241 416 351 569 265 503 l 712 416 b 484 569 701 510 620 569 "},"ė":{"ha":942,"x_min":0,"x_max":0,"o":"m 594 837 l 384 837 l 384 996 l 594 996 m 887 230 b 498 -16 863 87 733 -16 b 51 344 233 -16 51 115 b 493 706 51 570 226 706 b 891 317 763 706 902 580 l 233 317 b 494 121 246 203 338 121 b 713 230 608 121 690 165 m 484 569 b 241 416 351 569 265 503 l 712 416 b 484 569 701 510 620 569 "},"è":{"ha":942,"x_min":0,"x_max":0,"o":"m 594 996 l 594 837 l 384 837 l 384 996 m 887 230 b 498 -16 863 87 733 -16 b 51 344 233 -16 51 115 b 493 706 51 570 226 706 b 891 317 763 706 902 580 l 233 317 b 494 121 246 203 338 121 b 713 230 608 121 690 165 m 484 569 b 241 416 351 569 265 503 l 712 416 b 484 569 701 510 620 569 "},"ē":{"ha":942,"x_min":0,"x_max":0,"o":"m 594 837 l 384 837 l 384 996 l 594 996 m 887 230 b 498 -16 863 87 733 -16 b 51 344 233 -16 51 115 b 493 706 51 570 226 706 b 891 317 763 706 902 580 l 233 317 b 494 121 246 203 338 121 b 713 230 608 121 690 165 m 484 569 b 241 416 351 569 265 503 l 712 416 b 484 569 701 510 620 569 "},"ę":{"ha":942,"x_min":0,"x_max":0,"o":"m 887 230 b 498 -16 863 87 733 -16 b 51 344 233 -16 51 115 b 493 706 51 570 226 706 b 891 317 763 706 902 580 l 233 317 b 494 121 246 203 338 121 b 713 230 608 121 690 165 m 484 569 b 241 416 351 569 265 503 l 712 416 b 484 569 701 510 620 569 m 898 -278 l 689 -278 l 689 -119 l 898 -119 "},"f":{"ha":617,"x_min":0,"x_max":0,"o":"m 498 822 b 369 706 416 824 369 801 l 369 677 l 588 677 l 588 540 l 369 540 l 369 0 l 188 0 l 188 540 l 33 540 l 33 677 l 188 677 l 188 727 b 455 968 188 894 281 968 l 598 968 l 598 822 l 498 822 "},"g":{"ha":932,"x_min":0,"x_max":0,"o":"m 898 698 l 898 560 b 617 624 797 557 692 592 b 803 393 713 577 803 504 b 428 106 803 211 658 106 b 255 45 311 102 255 91 b 320 0 255 16 277 0 l 546 0 b 841 -219 732 0 841 -53 l 841 -284 l 660 -284 l 660 -252 b 507 -137 660 -166 601 -137 l 291 -137 b 73 -6 124 -137 73 -81 b 283 123 73 89 163 122 b 51 402 139 160 51 256 b 428 706 51 587 196 706 b 522 697 460 706 492 703 m 554 651 b 575 643 561 649 568 646 b 554 653 567 647 560 650 l 554 651 m 428 236 b 627 400 547 236 627 296 b 428 567 627 504 549 567 b 226 400 307 567 226 505 b 428 236 226 296 306 236 "},"ğ":{"ha":932,"x_min":0,"x_max":0,"o":"m 533 837 l 323 837 l 323 996 l 533 996 m 898 698 l 898 560 b 617 624 797 557 692 592 b 803 393 713 577 803 504 b 428 106 803 211 658 106 b 255 45 311 102 255 91 b 320 0 255 16 277 0 l 546 0 b 841 -219 732 0 841 -53 l 841 -284 l 660 -284 l 660 -252 b 507 -137 660 -166 601 -137 l 291 -137 b 73 -6 124 -137 73 -81 b 283 123 73 89 163 122 b 51 402 139 160 51 256 b 428 706 51 587 196 706 b 522 697 460 706 492 703 m 554 651 b 575 643 561 649 568 646 b 554 653 567 647 560 650 l 554 651 m 428 236 b 627 400 547 236 627 296 b 428 567 627 504 549 567 b 226 400 307 567 226 505 b 428 236 226 296 306 236 "},"ģ":{"ha":932,"x_min":0,"x_max":0,"o":"m 533 827 l 323 827 l 323 986 l 533 986 m 898 698 l 898 560 b 617 624 797 557 692 592 b 803 393 713 577 803 504 b 428 106 803 211 658 106 b 255 45 311 102 255 91 b 320 0 255 16 277 0 l 546 0 b 841 -219 732 0 841 -53 l 841 -284 l 660 -284 l 660 -252 b 507 -137 660 -166 601 -137 l 291 -137 b 73 -6 124 -137 73 -81 b 283 123 73 89 163 122 b 51 402 139 160 51 256 b 428 706 51 587 196 706 b 522 697 460 706 492 703 m 554 651 b 575 643 561 649 568 646 b 554 653 567 647 560 650 l 554 651 m 428 236 b 627 400 547 236 627 296 b 428 567 627 504 549 567 b 226 400 307 567 226 505 b 428 236 226 296 306 236 "},"ġ":{"ha":932,"x_min":0,"x_max":0,"o":"m 533 837 l 323 837 l 323 996 l 533 996 m 898 698 l 898 560 b 617 624 797 557 692 592 b 803 393 713 577 803 504 b 428 106 803 211 658 106 b 255 45 311 102 255 91 b 320 0 255 16 277 0 l 546 0 b 841 -219 732 0 841 -53 l 841 -284 l 660 -284 l 660 -252 b 507 -137 660 -166 601 -137 l 291 -137 b 73 -6 124 -137 73 -81 b 283 123 73 89 163 122 b 51 402 139 160 51 256 b 428 706 51 587 196 706 b 522 697 460 706 492 703 m 554 651 b 575 643 561 649 568 646 b 554 653 567 647 560 650 l 554 651 m 428 236 b 627 400 547 236 627 296 b 428 567 627 504 549 567 b 226 400 307 567 226 505 b 428 236 226 296 306 236 "},"h":{"ha":974,"x_min":0,"x_max":0,"o":"m 597 706 b 894 441 766 706 894 620 l 894 0 l 714 0 l 714 379 b 520 549 714 491 660 549 b 276 408 403 549 306 484 l 276 0 l 95 0 l 95 968 l 276 968 l 276 492 b 597 706 313 601 424 706 "},"ħ":{"ha":974,"x_min":0,"x_max":0,"o":"m 597 706 b 894 441 766 706 894 620 l 894 0 l 714 0 l 714 379 b 520 549 714 491 660 549 b 276 408 403 549 306 484 l 276 0 l 95 0 l 95 794 l 0 794 l 0 880 l 95 880 l 95 968 l 276 968 l 276 880 l 499 880 l 499 794 l 276 794 l 276 492 b 597 706 313 601 424 706 "},"i":{"ha":372,"x_min":0,"x_max":0,"o":"m 291 834 l 81 834 l 81 993 l 291 993 m 276 690 l 276 0 l 96 0 l 96 690 "},"ı":{"ha":343,"x_min":0,"x_max":0,"o":"m 262 690 l 262 0 l 81 0 l 81 690 "},"í":{"ha":343,"x_min":0,"x_max":0,"o":"m 276 835 l 67 835 l 67 994 l 276 994 m 262 690 l 262 0 l 81 0 l 81 690 "},"î":{"ha":343,"x_min":0,"x_max":0,"o":"m 276 835 l 67 835 l 67 994 l 276 994 m 262 690 l 262 0 l 81 0 l 81 690 "},"ï":{"ha":343,"x_min":0,"x_max":0,"o":"m 159 836 l -34 836 l -34 995 l 159 995 m 386 836 l 192 836 l 192 995 l 386 995 m 262 690 l 262 0 l 81 0 l 81 690 "},"ì":{"ha":343,"x_min":0,"x_max":0,"o":"m 276 994 l 276 835 l 67 835 l 67 994 m 262 690 l 262 0 l 81 0 l 81 690 "},"ĳ":{"ha":743,"x_min":0,"x_max":0,"o":"m 291 834 l 81 834 l 81 993 l 291 993 m 662 834 l 453 834 l 453 993 l 662 993 m 276 690 l 276 0 l 96 0 l 96 690 m 649 690 l 649 -278 l 468 -278 l 468 690 "},"ī":{"ha":343,"x_min":0,"x_max":0,"o":"m 276 835 l 67 835 l 67 994 l 276 994 m 262 690 l 262 0 l 81 0 l 81 690 "},"į":{"ha":372,"x_min":0,"x_max":0,"o":"m 291 834 l 81 834 l 81 993 l 291 993 m 276 690 l 276 0 l 96 0 l 96 690 m 372 -278 l 163 -278 l 163 -119 l 372 -119 "},"j":{"ha":372,"x_min":0,"x_max":0,"o":"m 291 834 l 81 834 l 81 993 l 291 993 m 277 690 l 277 -278 l 97 -278 l 97 690 "},"k":{"ha":901,"x_min":0,"x_max":0,"o":"m 95 968 l 276 968 l 276 0 l 95 0 m 890 0 l 660 -1 l 280 387 l 612 690 l 859 690 l 511 386 "},"ķ":{"ha":901,"x_min":0,"x_max":0,"o":"m 95 968 l 276 968 l 276 0 l 95 0 m 890 0 l 660 -1 l 280 387 l 612 690 l 859 690 l 511 386 m 345 -118 l 555 -118 l 555 -277 l 345 -277 "},"l":{"ha":376,"x_min":0,"x_max":0,"o":"m 278 968 l 278 0 l 98 0 l 98 968 "},"ĺ":{"ha":376,"x_min":0,"x_max":0,"o":"m 299 1101 l 89 1101 l 89 1260 l 299 1260 m 278 968 l 278 0 l 98 0 l 98 968 "},"ľ":{"ha":585,"x_min":0,"x_max":0,"o":"m 585 810 l 376 810 l 376 968 l 585 968 m 278 968 l 278 0 l 98 0 l 98 968 "},"ļ":{"ha":376,"x_min":0,"x_max":0,"o":"m 278 968 l 278 0 l 98 0 l 98 968 m 294 -277 l 84 -277 l 84 -118 l 294 -118 "},"ŀ":{"ha":633,"x_min":0,"x_max":0,"o":"m 278 968 l 278 0 l 98 0 l 98 968 m 536 374 l 326 374 l 326 533 l 536 533 "},"ł":{"ha":404,"x_min":0,"x_max":0,"o":"m 292 492 l 292 0 l 112 0 l 112 369 l 21 307 l -27 381 l 112 476 l 112 968 l 292 968 l 292 600 l 380 661 l 431 587 "},"m":{"ha":1564,"x_min":0,"x_max":0,"o":"m 1186 706 b 1484 422 1356 706 1484 617 l 1484 0 l 1304 0 l 1304 390 b 1122 560 1304 507 1250 560 b 878 436 1011 560 919 503 b 879 422 879 431 879 426 l 879 0 l 698 0 l 698 390 b 517 560 698 507 644 560 b 260 410 392 560 291 488 l 260 0 l 80 0 l 80 690 l 260 690 l 260 491 b 581 706 297 603 409 706 b 870 505 724 706 838 643 b 1186 706 912 609 1027 706 "},"n":{"ha":958,"x_min":0,"x_max":0,"o":"m 581 706 b 879 422 751 706 879 617 l 879 0 l 698 0 l 698 390 b 517 560 698 507 644 560 b 260 410 392 560 291 488 l 260 0 l 80 0 l 80 690 l 260 690 l 260 491 b 581 706 297 603 409 706 "},"ń":{"ha":958,"x_min":0,"x_max":0,"o":"m 629 837 l 420 837 l 420 996 l 629 996 m 581 706 b 879 422 751 706 879 617 l 879 0 l 698 0 l 698 390 b 517 560 698 507 644 560 b 260 410 392 560 291 488 l 260 0 l 80 0 l 80 690 l 260 690 l 260 491 b 581 706 297 603 409 706 "},"ň":{"ha":958,"x_min":0,"x_max":0,"o":"m 629 837 l 420 837 l 420 996 l 629 996 m 581 706 b 879 422 751 706 879 617 l 879 0 l 698 0 l 698 390 b 517 560 698 507 644 560 b 260 410 392 560 291 488 l 260 0 l 80 0 l 80 690 l 260 690 l 260 491 b 581 706 297 603 409 706 "},"ņ":{"ha":958,"x_min":0,"x_max":0,"o":"m 581 706 b 879 422 751 706 879 617 l 879 0 l 698 0 l 698 390 b 517 560 698 507 644 560 b 260 410 392 560 291 488 l 260 0 l 80 0 l 80 690 l 260 690 l 260 491 b 581 706 297 603 409 706 m 374 -118 l 584 -118 l 584 -277 l 374 -277 "},"ŋ":{"ha":958,"x_min":0,"x_max":0,"o":"m 581 706 b 879 422 751 706 879 617 l 879 -49 b 514 -294 879 -208 769 -294 l 514 -146 b 698 0 646 -146 698 -101 l 698 390 b 517 560 698 507 644 560 b 260 410 392 560 291 488 l 260 0 l 80 0 l 80 690 l 260 690 l 260 491 b 581 706 297 603 409 706 "},"ñ":{"ha":958,"x_min":0,"x_max":0,"o":"m 629 837 l 420 837 l 420 996 l 629 996 m 581 706 b 879 422 751 706 879 617 l 879 0 l 698 0 l 698 390 b 517 560 698 507 644 560 b 260 410 392 560 291 488 l 260 0 l 80 0 l 80 690 l 260 690 l 260 491 b 581 706 297 603 409 706 "},"o":{"ha":978,"x_min":0,"x_max":0,"o":"m 491 -16 b 51 344 229 -16 51 109 b 491 706 51 577 229 706 b 927 344 750 706 927 577 b 491 -16 927 109 750 -16 m 491 123 b 744 344 632 123 744 201 b 491 568 744 485 634 568 b 233 344 348 568 233 487 b 491 123 233 201 346 123 "},"ó":{"ha":978,"x_min":0,"x_max":0,"o":"m 595 837 l 386 837 l 386 996 l 595 996 m 491 -16 b 51 344 229 -16 51 109 b 491 706 51 577 229 706 b 927 344 750 706 927 577 b 491 -16 927 109 750 -16 m 491 123 b 744 344 632 123 744 201 b 491 568 744 485 634 568 b 233 344 348 568 233 487 b 491 123 233 201 346 123 "},"ô":{"ha":978,"x_min":0,"x_max":0,"o":"m 595 837 l 386 837 l 386 996 l 595 996 m 491 -16 b 51 344 229 -16 51 109 b 491 706 51 577 229 706 b 927 344 750 706 927 577 b 491 -16 927 109 750 -16 m 491 123 b 744 344 632 123 744 201 b 491 568 744 485 634 568 b 233 344 348 568 233 487 b 491 123 233 201 346 123 "},"ö":{"ha":978,"x_min":0,"x_max":0,"o":"m 445 836 l 235 836 l 235 995 l 445 995 m 746 836 l 536 836 l 536 995 l 746 995 m 491 -16 b 51 344 229 -16 51 109 b 491 706 51 577 229 706 b 927 344 750 706 927 577 b 491 -16 927 109 750 -16 m 491 123 b 744 344 632 123 744 201 b 491 568 744 485 634 568 b 233 344 348 568 233 487 b 491 123 233 201 346 123 "},"ò":{"ha":978,"x_min":0,"x_max":0,"o":"m 595 996 l 595 837 l 386 837 l 386 996 m 491 -16 b 51 344 229 -16 51 109 b 491 706 51 577 229 706 b 927 344 750 706 927 577 b 491 -16 927 109 750 -16 m 491 123 b 744 344 632 123 744 201 b 491 568 744 485 634 568 b 233 344 348 568 233 487 b 491 123 233 201 346 123 "},"ő":{"ha":978,"x_min":0,"x_max":0,"o":"m 435 836 l 226 836 l 226 995 l 435 995 m 736 836 l 527 836 l 527 995 l 736 995 m 491 -16 b 51 344 229 -16 51 109 b 491 706 51 577 229 706 b 927 344 750 706 927 577 b 491 -16 927 109 750 -16 m 491 123 b 744 344 632 123 744 201 b 491 568 744 485 634 568 b 233 344 348 568 233 487 b 491 123 233 201 346 123 "},"ō":{"ha":978,"x_min":0,"x_max":0,"o":"m 595 837 l 386 837 l 386 996 l 595 996 m 491 -16 b 51 344 229 -16 51 109 b 491 706 51 577 229 706 b 927 344 750 706 927 577 b 491 -16 927 109 750 -16 m 491 123 b 744 344 632 123 744 201 b 491 568 744 485 634 568 b 233 344 348 568 233 487 b 491 123 233 201 346 123 "},"ø":{"ha":978,"x_min":0,"x_max":0,"o":"m 724 662 b 927 344 850 605 927 497 b 491 -16 927 109 750 -16 b 333 2 434 -16 381 -10 l 296 -62 l 223 -17 l 251 29 b 51 344 126 85 51 191 b 491 706 51 577 229 706 b 641 690 545 706 595 701 l 679 754 l 754 712 l 724 662 m 233 344 b 330 164 233 261 271 200 l 564 560 b 491 568 541 565 516 568 b 233 344 348 568 233 487 m 491 123 b 744 344 632 123 744 201 b 645 528 744 427 706 490 l 410 131 b 491 123 435 126 462 123 "},"õ":{"ha":978,"x_min":0,"x_max":0,"o":"m 595 837 l 386 837 l 386 996 l 595 996 m 491 -16 b 51 344 229 -16 51 109 b 491 706 51 577 229 706 b 927 344 750 706 927 577 b 491 -16 927 109 750 -16 m 491 123 b 744 344 632 123 744 201 b 491 568 744 485 634 568 b 233 344 348 568 233 487 b 491 123 233 201 346 123 "},"œ":{"ha":1708,"x_min":0,"x_max":0,"o":"m 1260 706 b 1657 317 1530 706 1669 580 l 999 317 b 1260 121 1012 203 1104 121 b 1480 230 1375 121 1457 165 l 1654 230 b 1265 -16 1630 87 1499 -16 b 874 150 1088 -16 947 42 b 491 -16 803 41 665 -16 b 51 344 229 -16 51 109 b 491 706 51 577 229 706 b 873 539 665 706 802 648 b 1260 706 945 646 1082 706 m 1478 416 b 1251 569 1468 510 1386 569 b 1008 416 1118 569 1032 503 m 491 123 b 744 344 632 123 744 201 b 491 568 744 485 634 568 b 233 344 348 568 233 487 b 491 123 233 201 346 123 "},"p":{"ha":1003,"x_min":0,"x_max":0,"o":"m 583 706 b 952 344 790 706 952 558 b 583 -16 952 125 787 -16 b 260 220 399 -16 299 95 l 260 -278 l 80 -278 l 80 690 l 251 690 l 260 508 l 260 487 b 583 706 298 617 398 706 m 525 124 b 767 344 671 124 767 211 b 525 566 767 477 679 566 b 260 360 381 566 268 491 l 260 329 b 525 124 268 205 367 124 "},"þ":{"ha":1003,"x_min":0,"x_max":0,"o":"m 583 706 b 952 344 790 706 952 558 b 583 -16 952 125 787 -16 b 260 220 399 -16 299 95 l 260 -278 l 80 -278 l 80 967 l 260 967 l 260 487 b 583 706 298 617 398 706 m 525 124 b 767 344 671 124 767 211 b 525 566 767 477 679 566 b 260 360 381 566 268 491 l 260 329 b 525 124 268 205 367 124 "},"q":{"ha":1035,"x_min":0,"x_max":0,"o":"m 923 690 l 923 -278 l 743 -278 l 743 221 b 420 -16 704 96 604 -16 b 51 344 213 -16 51 125 b 420 706 51 558 213 706 b 743 485 605 706 705 616 l 743 519 l 749 690 m 478 124 b 743 344 641 124 743 212 b 478 566 743 486 640 566 b 235 344 323 566 235 477 b 478 124 235 211 332 124 "},"r":{"ha":549,"x_min":0,"x_max":0,"o":"m 260 483 b 525 706 286 568 362 706 l 525 541 b 260 377 358 541 284 426 l 260 0 l 80 0 l 80 690 l 260 690 l 260 483 "},"ŕ":{"ha":549,"x_min":0,"x_max":0,"o":"m 429 837 l 219 837 l 219 996 l 429 996 m 260 483 b 525 706 286 568 362 706 l 525 541 b 260 377 358 541 284 426 l 260 0 l 80 0 l 80 690 l 260 690 l 260 483 "},"ř":{"ha":549,"x_min":0,"x_max":0,"o":"m 429 837 l 219 837 l 219 996 l 429 996 m 260 483 b 525 706 286 568 362 706 l 525 541 b 260 377 358 541 284 426 l 260 0 l 80 0 l 80 690 l 260 690 l 260 483 "},"ŗ":{"ha":549,"x_min":0,"x_max":0,"o":"m 260 483 b 525 706 286 568 362 706 l 525 541 b 260 377 358 541 284 426 l 260 0 l 80 0 l 80 690 l 260 690 l 260 483 m 66 -118 l 275 -118 l 275 -277 l 66 -277 "},"s":{"ha":783,"x_min":0,"x_max":0,"o":"m 223 230 b 411 122 242 167 302 123 b 545 199 511 122 545 154 b 361 295 545 262 480 275 b 62 496 203 322 62 359 b 389 706 62 631 202 706 b 706 470 594 706 704 608 l 546 470 b 386 566 530 539 480 566 b 247 489 296 566 247 537 b 443 394 247 431 312 415 b 729 187 584 365 729 339 b 417 -16 729 57 604 -16 b 56 230 116 -16 48 163 "},"ś":{"ha":783,"x_min":0,"x_max":0,"o":"m 494 837 l 285 837 l 285 996 l 494 996 m 223 230 b 411 122 242 167 302 123 b 545 199 511 122 545 154 b 361 295 545 262 480 275 b 62 496 203 322 62 359 b 389 706 62 631 202 706 b 706 470 594 706 704 608 l 546 470 b 386 566 530 539 480 566 b 247 489 296 566 247 537 b 443 394 247 431 312 415 b 729 187 584 365 729 339 b 417 -16 729 57 604 -16 b 56 230 116 -16 48 163 "},"š":{"ha":783,"x_min":0,"x_max":0,"o":"m 223 230 b 411 122 242 167 302 123 b 545 199 511 122 545 154 b 361 295 545 262 480 275 b 62 496 203 322 62 359 b 389 706 62 631 202 706 b 706 470 594 706 704 608 l 546 470 b 386 566 530 539 480 566 b 247 489 296 566 247 537 b 443 394 247 431 312 415 b 729 187 584 365 729 339 b 417 -16 729 57 604 -16 b 56 230 116 -16 48 163 m 330 -301 l 330 -143 l 539 -143 l 539 -301 "},"ş":{"ha":783,"x_min":0,"x_max":0,"o":"m 223 230 b 411 122 242 167 302 123 b 545 199 511 122 545 154 b 361 295 545 262 480 275 b 62 496 203 322 62 359 b 389 706 62 631 202 706 b 706 470 594 706 704 608 l 546 470 b 386 566 530 539 480 566 b 247 489 296 566 247 537 b 443 394 247 431 312 415 b 729 187 584 365 729 339 b 417 -16 729 57 604 -16 b 56 230 116 -16 48 163 m 527 -291 l 318 -291 l 318 -132 l 527 -132 "},"ș":{"ha":783,"x_min":0,"x_max":0,"o":"m 223 230 b 411 122 242 167 302 123 b 545 199 511 122 545 154 b 361 295 545 262 480 275 b 62 496 203 322 62 359 b 389 706 62 631 202 706 b 706 470 594 706 704 608 l 546 470 b 386 566 530 539 480 566 b 247 489 296 566 247 537 b 443 394 247 431 312 415 b 729 187 584 365 729 339 b 417 -16 729 57 604 -16 b 56 230 116 -16 48 163 m 527 -291 l 318 -291 l 318 -132 l 527 -132 "},"ß":{"ha":990,"x_min":0,"x_max":0,"o":"m 651 281 b 967 42 822 266 967 205 b 484 -240 967 -146 773 -240 l 484 -102 b 784 38 718 -102 784 -60 b 506 179 784 131 723 179 l 457 179 l 457 311 l 672 540 l 276 540 l 276 0 l 95 0 l 95 727 b 362 968 95 894 188 968 l 520 968 l 520 822 l 392 822 b 276 706 322 824 276 795 l 276 677 l 884 677 l 884 555 l 651 281 "},"t":{"ha":601,"x_min":0,"x_max":0,"o":"m 568 553 l 391 553 l 391 0 l 210 0 l 210 553 l 33 553 l 33 690 l 210 690 l 210 879 l 391 879 l 391 690 l 568 690 "},"ŧ":{"ha":601,"x_min":0,"x_max":0,"o":"m 405 1016 l 195 1016 l 195 1175 l 405 1175 m 568 553 l 391 553 l 391 0 l 210 0 l 210 553 l 33 553 l 33 690 l 210 690 l 210 879 l 391 879 l 391 690 l 568 690 "},"ť":{"ha":601,"x_min":0,"x_max":0,"o":"m 405 1016 l 195 1016 l 195 1175 l 405 1175 m 568 553 l 391 553 l 391 0 l 210 0 l 210 553 l 33 553 l 33 690 l 210 690 l 210 879 l 391 879 l 391 690 l 568 690 "},"ţ":{"ha":601,"x_min":0,"x_max":0,"o":"m 568 690 l 568 553 l 391 553 l 391 0 l 210 0 l 210 553 l 33 553 l 33 690 l 210 690 l 210 879 l 391 879 l 391 690 m 196 -118 l 405 -118 l 405 -277 l 196 -277 "},"ț":{"ha":601,"x_min":0,"x_max":0,"o":"m 568 690 l 568 553 l 391 553 l 391 0 l 210 0 l 210 553 l 33 553 l 33 690 l 210 690 l 210 879 l 391 879 l 391 690 m 196 -118 l 405 -118 l 405 -277 l 196 -277 "},"u":{"ha":958,"x_min":0,"x_max":0,"o":"m 879 690 l 879 0 l 698 0 l 698 237 b 388 -16 670 144 586 -16 b 80 272 237 -16 80 48 l 80 690 l 260 690 l 260 302 b 443 130 260 169 329 130 b 698 308 603 130 675 255 l 698 690 "},"ú":{"ha":958,"x_min":0,"x_max":0,"o":"m 597 837 l 387 837 l 387 996 l 597 996 m 879 690 l 879 0 l 698 0 l 698 237 b 388 -16 670 144 586 -16 b 80 272 237 -16 80 48 l 80 690 l 260 690 l 260 302 b 443 130 260 169 329 130 b 698 308 603 130 675 255 l 698 690 "},"û":{"ha":958,"x_min":0,"x_max":0,"o":"m 597 837 l 387 837 l 387 996 l 597 996 m 879 690 l 879 0 l 698 0 l 698 237 b 388 -16 670 144 586 -16 b 80 272 237 -16 80 48 l 80 690 l 260 690 l 260 302 b 443 130 260 169 329 130 b 698 309 603 130 675 255 l 698 690 "},"ü":{"ha":958,"x_min":0,"x_max":0,"o":"m 446 836 l 237 836 l 237 995 l 446 995 m 747 836 l 538 836 l 538 995 l 747 995 m 879 690 l 879 0 l 698 0 l 698 237 b 388 -16 670 144 586 -16 b 80 272 237 -16 80 48 l 80 690 l 260 690 l 260 302 b 443 130 260 169 329 130 b 698 308 603 130 675 255 l 698 690 "},"ù":{"ha":958,"x_min":0,"x_max":0,"o":"m 597 996 l 597 837 l 387 837 l 387 996 m 879 690 l 879 0 l 698 0 l 698 237 b 388 -16 670 144 586 -16 b 80 272 237 -16 80 48 l 80 690 l 260 690 l 260 302 b 443 130 260 169 329 130 b 698 308 603 130 675 255 l 698 690 "},"ű":{"ha":958,"x_min":0,"x_max":0,"o":"m 437 836 l 227 836 l 227 995 l 437 995 m 738 836 l 528 836 l 528 995 l 738 995 m 879 690 l 879 0 l 698 0 l 698 237 b 388 -16 670 144 586 -16 b 80 272 237 -16 80 48 l 80 690 l 260 690 l 260 302 b 443 130 260 169 329 130 b 698 308 603 130 675 255 l 698 690 "},"ū":{"ha":958,"x_min":0,"x_max":0,"o":"m 597 837 l 387 837 l 387 996 l 597 996 m 879 690 l 879 0 l 698 0 l 698 237 b 388 -16 670 144 586 -16 b 80 272 237 -16 80 48 l 80 690 l 260 690 l 260 302 b 443 130 260 169 329 130 b 698 308 603 130 675 255 l 698 690 "},"ų":{"ha":958,"x_min":0,"x_max":0,"o":"m 879 690 l 879 0 l 698 0 l 698 237 b 388 -16 670 144 586 -16 b 80 272 237 -16 80 48 l 80 690 l 260 690 l 260 302 b 443 130 260 169 329 130 b 698 308 603 130 675 255 l 698 690 m 897 -278 l 688 -278 l 688 -119 l 897 -119 "},"ů":{"ha":958,"x_min":0,"x_max":0,"o":"m 597 837 l 387 837 l 387 996 l 597 996 m 879 690 l 879 0 l 698 0 l 698 237 b 388 -16 670 144 586 -16 b 80 272 237 -16 80 48 l 80 690 l 260 690 l 260 302 b 443 130 260 169 329 130 b 698 308 603 130 675 255 l 698 690 "},"v":{"ha":871,"x_min":0,"x_max":0,"o":"m 849 690 l 516 0 l 346 0 l 21 690 l 219 690 l 431 193 l 651 690 "},"w":{"ha":1371,"x_min":0,"x_max":0,"o":"m 1350 690 l 1046 0 l 876 0 l 684 481 l 487 0 l 317 0 l 21 690 l 219 690 l 407 201 l 581 690 l 789 690 l 957 201 l 1152 690 "},"ẃ":{"ha":1371,"x_min":0,"x_max":0,"o":"m 787 837 l 577 837 l 577 996 l 787 996 m 1350 690 l 1046 0 l 876 0 l 684 481 l 487 0 l 317 0 l 21 690 l 219 690 l 407 201 l 581 690 l 789 690 l 957 201 l 1152 690 "},"ŵ":{"ha":1371,"x_min":0,"x_max":0,"o":"m 787 837 l 577 837 l 577 996 l 787 996 m 1350 690 l 1046 0 l 876 0 l 684 481 l 487 0 l 317 0 l 21 690 l 219 690 l 407 201 l 581 690 l 789 690 l 957 201 l 1152 690 "},"ẅ":{"ha":1371,"x_min":0,"x_max":0,"o":"m 636 836 l 427 836 l 427 995 l 636 995 m 937 836 l 728 836 l 728 995 l 937 995 m 1350 690 l 1046 0 l 876 0 l 684 481 l 487 0 l 317 0 l 21 690 l 219 690 l 407 201 l 581 690 l 789 690 l 957 201 l 1152 690 "},"ẁ":{"ha":1371,"x_min":0,"x_max":0,"o":"m 787 996 l 787 837 l 577 837 l 577 996 m 1350 690 l 1046 0 l 876 0 l 684 481 l 487 0 l 317 0 l 21 690 l 219 690 l 407 201 l 581 690 l 789 690 l 957 201 l 1152 690 "},"x":{"ha":913,"x_min":0,"x_max":0,"o":"m 664 0 l 451 239 l 248 0 l 28 0 l 350 348 l 28 690 l 248 690 l 455 466 l 646 690 l 866 690 l 555 357 l 884 0 "},"y":{"ha":886,"x_min":0,"x_max":0,"o":"m 865 690 l 387 -278 l 200 -278 l 352 6 l 21 690 l 213 690 l 441 185 l 673 690 "},"ý":{"ha":886,"x_min":0,"x_max":0,"o":"m 550 837 l 340 837 l 340 996 l 550 996 m 865 690 l 387 -278 l 200 -278 l 352 6 l 21 690 l 213 690 l 441 185 l 673 690 "},"ŷ":{"ha":886,"x_min":0,"x_max":0,"o":"m 550 837 l 340 837 l 340 996 l 550 996 m 865 690 l 387 -278 l 200 -278 l 352 6 l 21 690 l 213 690 l 441 185 l 673 690 "},"ÿ":{"ha":886,"x_min":0,"x_max":0,"o":"m 399 836 l 190 836 l 190 995 l 399 995 m 700 836 l 491 836 l 491 995 l 700 995 m 865 690 l 387 -278 l 200 -278 l 352 6 l 21 690 l 213 690 l 441 185 l 673 690 "},"ỳ":{"ha":886,"x_min":0,"x_max":0,"o":"m 550 996 l 550 837 l 340 837 l 340 996 m 865 690 l 387 -278 l 200 -278 l 352 6 l 21 690 l 213 690 l 441 185 l 673 690 "},"z":{"ha":864,"x_min":0,"x_max":0,"o":"m 786 137 l 786 0 l 79 0 l 79 137 l 576 553 l 79 553 l 79 690 l 780 690 l 780 553 l 283 137 "},"ź":{"ha":864,"x_min":0,"x_max":0,"o":"m 533 837 l 324 837 l 324 996 l 533 996 m 786 137 l 786 0 l 79 0 l 79 137 l 576 553 l 79 553 l 79 690 l 780 690 l 780 553 l 283 137 "},"ž":{"ha":864,"x_min":0,"x_max":0,"o":"m 533 837 l 324 837 l 324 996 l 533 996 m 786 137 l 786 0 l 79 0 l 79 137 l 576 553 l 79 553 l 79 690 l 780 690 l 780 553 l 283 137 "},"ż":{"ha":864,"x_min":0,"x_max":0,"o":"m 533 837 l 324 837 l 324 996 l 533 996 m 786 137 l 786 0 l 79 0 l 79 137 l 576 553 l 79 553 l 79 690 l 780 690 l 780 553 l 283 137 "},"ﬁ":{"ha":989,"x_min":0,"x_max":0,"o":"m 498 822 b 369 706 416 824 369 801 l 369 658 l 907 658 l 907 0 l 727 0 l 727 521 l 588 521 l 369 521 l 369 0 l 188 0 l 188 521 l 33 521 l 33 658 l 188 658 l 188 727 b 455 968 188 894 281 968 l 907 968 l 907 822 l 498 822 "},"ª":{"ha":935,"x_min":0,"x_max":0,"o":"m 855 968 l 855 422 l 687 422 b 674 586 687 422 674 518 l 674 605 b 374 406 636 509 535 406 b 51 689 181 406 51 527 b 383 984 51 863 181 984 b 674 798 539 984 636 904 l 674 968 m 423 544 b 674 689 569 544 674 611 b 423 844 674 787 567 844 b 235 689 293 844 235 783 b 423 544 235 605 301 544 "},"º":{"ha":978,"x_min":0,"x_max":0,"o":"m 491 396 b 97 688 247 396 97 505 b 491 984 97 870 247 984 b 881 688 733 984 881 870 b 491 396 881 505 733 396 m 491 528 b 701 688 634 528 701 595 b 491 851 701 781 636 851 b 276 688 345 851 276 782 b 491 528 276 595 344 528 "},"Δ":{"ha":1038,"x_min":0,"x_max":0,"o":"m 982 0 l 56 0 l 519 972 m 294 141 l 744 141 l 519 651 "},"Ω":{"ha":1131,"x_min":0,"x_max":0,"o":"m 801 133 l 1067 141 l 1067 0 l 655 0 l 655 211 b 918 490 786 255 918 333 b 566 758 918 646 802 758 b 213 490 329 758 213 646 b 484 211 213 329 349 251 l 484 0 l 64 0 l 64 141 l 333 133 l 334 178 l 336 178 b 28 508 182 217 28 312 b 566 917 28 734 237 917 b 1103 508 894 917 1103 734 b 800 177 1103 314 944 212 "},"μ":{"ha":1054,"x_min":0,"x_max":0,"o":"m 879 270 b 1012 149 879 164 922 149 l 1012 -10 b 698 228 789 -10 701 79 b 427 -16 674 134 608 -16 b 260 65 351 -16 296 10 l 260 -278 l 80 -278 l 80 690 l 260 690 l 260 311 b 448 130 260 169 342 130 b 698 307 606 130 675 252 l 698 690 l 879 690 l 879 270 "},"π":{"ha":1088,"x_min":0,"x_max":0,"o":"m 848 553 l 848 265 b 1016 128 848 144 891 128 l 1016 -14 b 668 256 771 -14 668 80 l 668 553 l 419 553 l 419 0 l 239 0 l 239 553 l 69 553 l 69 690 l 1017 690 l 1017 553 "},"¹":{"ha":371,"x_min":0,"x_max":0,"o":"m 301 972 l 301 556 l 197 556 l 197 878 l 69 878 l 69 972 "},"²":{"ha":458,"x_min":0,"x_max":0,"o":"m 389 647 l 389 555 l 82 555 l 82 644 b 292 829 216 745 292 768 b 226 889 292 863 270 889 b 166 808 181 889 153 852 l 73 808 b 226 987 51 904 127 987 b 392 829 322 987 392 921 b 199 640 392 735 326 700 "},"³":{"ha":436,"x_min":0,"x_max":0,"o":"m 281 768 b 367 668 339 755 367 722 b 218 545 367 604 319 545 b 71 697 112 545 63 617 l 162 697 b 218 640 160 673 171 640 b 271 685 254 640 271 662 b 211 735 271 715 251 735 l 162 735 l 162 803 l 211 803 b 266 846 250 803 266 820 b 214 892 266 874 249 892 b 162 841 178 892 160 864 l 77 841 b 217 987 65 918 121 987 b 361 862 308 987 361 934 b 281 768 361 808 337 779 "},"⁄":{"ha":117,"x_min":0,"x_max":0,"o":"m 367 931 l -164 -28 l -236 17 l 292 972 "},"½":{"ha":1364,"x_min":0,"x_max":0,"o":"m 1012 931 l 481 -28 l 409 17 l 937 972 m 521 352 l 35 352 l 35 475 l 214 475 l 214 778 l 41 778 l 41 899 l 377 899 l 377 475 l 521 475 m 1304 122 l 1304 0 l 828 0 l 828 118 b 1160 369 1062 220 1160 305 b 1060 433 1160 409 1134 433 b 953 376 988 433 958 400 l 819 376 b 1066 560 813 476 900 560 b 1298 400 1205 560 1298 505 b 1092 162 1298 293 1208 222 l 998 118 "},"↉":{"ha":1382,"x_min":0,"x_max":0,"o":"m 1037 931 l 507 -28 l 435 17 l 962 972 m 620 622 b 335 334 620 450 522 334 b 51 622 149 334 51 450 b 335 910 51 794 149 910 b 620 622 522 910 620 794 m 335 473 b 466 622 422 473 466 530 b 335 770 466 713 422 770 b 202 622 249 770 202 713 b 335 473 202 530 248 473 m 1140 279 b 1332 151 1256 269 1332 241 b 1088 -18 1332 48 1240 -18 b 838 169 928 -18 833 58 l 959 169 b 1086 102 960 128 1003 102 b 1203 170 1173 102 1203 125 b 1067 238 1203 215 1162 238 l 987 238 l 987 315 l 1067 315 b 1195 378 1164 315 1195 337 b 1082 434 1195 412 1163 434 b 964 378 1010 434 966 409 l 844 378 b 1081 560 839 490 943 560 b 1322 409 1235 560 1322 494 b 1140 279 1322 327 1251 286 "},"⅓":{"ha":1357,"x_min":0,"x_max":0,"o":"m 1012 931 l 481 -28 l 409 17 l 937 972 m 521 352 l 35 352 l 35 475 l 214 475 l 214 778 l 41 778 l 41 899 l 377 899 l 377 475 l 521 475 m 1114 279 b 1307 151 1230 269 1307 241 b 1062 -18 1307 48 1214 -18 b 813 169 903 -18 807 58 l 933 169 b 1061 102 934 128 977 102 b 1178 170 1147 102 1178 125 b 1042 238 1178 215 1136 238 l 961 238 l 961 315 l 1042 315 b 1169 378 1138 315 1169 337 b 1057 434 1169 412 1137 434 b 939 378 985 434 940 409 l 819 378 b 1055 560 813 490 918 560 b 1297 409 1209 560 1297 494 b 1114 279 1297 327 1226 286 "},"⅔":{"ha":1382,"x_min":0,"x_max":0,"o":"m 1037 931 l 506 -28 l 434 17 l 962 972 m 542 352 l 66 352 l 66 470 b 399 722 300 572 399 657 b 298 785 399 762 372 785 b 192 728 226 785 197 752 l 57 728 b 304 913 51 828 138 913 b 536 752 443 913 536 857 b 330 514 536 645 446 575 l 236 470 l 542 475 m 1139 279 b 1331 151 1255 269 1331 241 b 1087 -18 1331 48 1239 -18 b 838 169 927 -18 832 58 l 958 169 b 1085 102 959 128 1002 102 b 1203 170 1172 102 1203 125 b 1066 238 1203 215 1161 238 l 986 238 l 986 315 l 1066 315 b 1194 378 1163 315 1194 337 b 1081 434 1194 412 1162 434 b 964 378 1009 434 965 409 l 844 378 b 1080 560 838 490 943 560 b 1321 409 1234 560 1321 494 b 1139 279 1321 327 1251 286 "},"¼":{"ha":1289,"x_min":0,"x_max":0,"o":"m 1012 931 l 481 -28 l 409 17 l 937 972 m 521 352 l 35 352 l 35 475 l 214 475 l 214 778 l 41 778 l 41 899 l 377 899 l 377 475 l 521 475 m 1233 100 l 1161 100 l 1161 0 l 1014 0 l 1014 100 l 724 100 l 724 214 l 1021 546 l 1161 546 l 1161 210 l 1233 210 m 1019 393 l 877 204 l 1019 204 "},"¾":{"ha":1257,"x_min":0,"x_max":0,"o":"m 980 931 l 449 -28 l 377 17 l 905 972 m 545 504 b 300 334 545 401 452 334 b 51 521 141 334 45 411 l 171 521 b 299 455 172 480 215 455 b 416 522 385 455 416 477 b 280 591 416 567 374 591 l 199 591 l 199 667 l 280 667 b 407 731 376 667 407 690 b 295 786 407 764 375 786 b 177 730 223 786 178 761 l 57 730 b 293 912 51 842 156 912 b 535 762 447 912 535 846 b 352 631 535 680 464 639 b 545 504 468 622 545 594 m 1201 100 l 1129 100 l 1129 0 l 982 0 l 982 100 l 692 100 l 692 214 l 989 546 l 1129 546 l 1129 210 l 1201 210 m 986 393 l 845 204 l 986 204 "},"⅕":{"ha":1408,"x_min":0,"x_max":0,"o":"m 1012 931 l 481 -28 l 409 17 l 937 972 m 521 352 l 35 352 l 35 475 l 214 475 l 214 778 l 41 778 l 41 899 l 377 899 l 377 475 l 521 475 m 1143 351 b 1343 170 1260 351 1343 284 b 1098 -18 1343 52 1255 -18 b 843 168 950 -18 848 53 l 969 168 b 1103 100 974 127 1023 100 b 1215 178 1174 100 1215 127 b 1106 254 1215 229 1176 254 b 975 215 1039 254 987 241 l 864 243 l 884 547 l 1291 547 l 1291 430 l 993 430 l 983 294 b 1143 351 1020 332 1071 351 "},"⅖":{"ha":1433,"x_min":0,"x_max":0,"o":"m 1037 931 l 506 -28 l 434 17 l 962 972 m 542 352 l 66 352 l 66 470 b 399 722 300 572 399 657 b 298 785 399 762 372 785 b 192 728 226 785 197 752 l 57 728 b 304 913 51 828 138 913 b 536 752 443 913 536 857 b 330 514 536 645 446 575 l 236 470 l 542 475 m 1168 351 b 1368 170 1285 351 1368 284 b 1123 -18 1368 52 1280 -18 b 868 168 975 -18 873 53 l 994 168 b 1128 100 998 127 1048 100 b 1239 178 1199 100 1239 127 b 1130 254 1239 229 1200 254 b 1000 215 1063 254 1011 241 l 889 243 l 909 547 l 1315 547 l 1315 430 l 1018 430 l 1008 294 b 1168 351 1045 332 1096 351 "},"⅗":{"ha":1376,"x_min":0,"x_max":0,"o":"m 980 931 l 449 -28 l 377 17 l 905 972 m 545 504 b 300 334 545 401 452 334 b 51 521 141 334 45 411 l 171 521 b 299 455 172 480 215 455 b 416 522 385 455 416 477 b 280 591 416 567 374 591 l 199 591 l 199 667 l 280 667 b 407 731 376 667 407 690 b 295 786 407 764 375 786 b 177 730 223 786 178 761 l 57 730 b 293 912 51 842 156 912 b 535 762 447 912 535 846 b 352 631 535 680 464 639 b 545 504 468 622 545 594 m 1111 351 b 1311 170 1228 351 1311 284 b 1066 -18 1311 52 1223 -18 b 811 168 918 -18 816 53 l 937 168 b 1071 100 941 127 991 100 b 1182 178 1142 100 1182 127 b 1074 254 1182 229 1144 254 b 943 215 1007 254 955 241 l 832 243 l 852 547 l 1259 547 l 1259 430 l 961 430 l 951 294 b 1111 351 988 332 1039 351 "},"⅘":{"ha":1429,"x_min":0,"x_max":0,"o":"m 1033 931 l 502 -28 l 430 17 l 958 972 m 355 352 l 355 452 l 65 452 l 65 567 l 362 898 l 502 898 l 502 562 l 574 562 l 574 452 l 502 452 l 502 352 m 359 745 l 218 556 l 359 556 m 1164 351 b 1364 170 1281 351 1364 284 b 1119 -18 1364 52 1276 -18 b 864 168 971 -18 869 53 l 990 168 b 1124 100 994 127 1044 100 b 1235 178 1195 100 1235 127 b 1126 254 1235 229 1196 254 b 996 215 1059 254 1007 241 l 885 243 l 905 547 l 1311 547 l 1311 430 l 1014 430 l 1003 294 b 1164 351 1041 332 1092 351 "},"⅙":{"ha":1314,"x_min":0,"x_max":0,"o":"m 1012 931 l 481 -28 l 409 17 l 937 972 m 521 352 l 35 352 l 35 475 l 214 475 l 214 778 l 41 778 l 41 899 l 377 899 l 377 475 l 521 475 m 1047 373 b 1264 182 1181 373 1264 297 b 1020 -18 1264 59 1173 -18 b 746 170 848 -18 746 62 b 785 285 746 206 753 241 b 960 546 812 333 960 546 l 1129 546 l 965 351 b 1047 373 989 365 1015 373 m 1012 103 b 1137 185 1100 103 1137 137 b 1010 269 1137 236 1099 269 b 873 185 921 269 873 236 b 1012 103 873 137 921 103 "},"⅚":{"ha":1315,"x_min":0,"x_max":0,"o":"m 1013 931 l 482 -28 l 410 17 l 938 972 m 582 523 b 337 334 582 405 493 334 b 81 520 188 334 86 405 l 207 520 b 341 453 212 479 261 453 b 453 530 412 453 453 480 b 344 606 453 581 414 606 b 213 567 277 606 225 594 l 102 595 l 122 899 l 529 899 l 529 782 l 232 782 l 221 646 b 381 703 258 684 310 703 b 582 523 498 703 582 636 m 1048 373 b 1265 182 1182 373 1265 297 b 1021 -18 1265 59 1174 -18 b 747 170 849 -18 747 62 b 786 285 747 206 754 241 b 961 546 813 333 961 546 l 1130 546 l 966 351 b 1048 373 990 365 1016 373 m 1013 103 b 1138 185 1101 103 1138 137 b 1011 269 1138 236 1100 269 b 874 185 922 269 874 236 b 1013 103 874 137 922 103 "},"⅐":{"ha":1374,"x_min":0,"x_max":0,"o":"m 1012 931 l 481 -28 l 409 17 l 937 972 m 521 352 l 35 352 l 35 475 l 214 475 l 214 778 l 41 778 l 41 899 l 377 899 l 377 475 l 521 475 m 1342 546 l 1342 426 l 1122 0 l 952 0 l 1177 419 l 872 419 l 872 546 "},"⅛":{"ha":1375,"x_min":0,"x_max":0,"o":"m 1012 931 l 481 -28 l 409 17 l 937 972 m 521 352 l 35 352 l 35 475 l 214 475 l 214 778 l 41 778 l 41 899 l 377 899 l 377 475 l 521 475 m 1183 281 b 1317 150 1258 268 1317 224 b 1068 -18 1317 50 1233 -18 b 820 150 903 -18 820 50 b 948 281 820 224 879 268 b 835 403 885 296 835 335 b 1068 559 835 499 917 559 b 1301 403 1220 559 1301 499 b 1183 281 1301 335 1251 296 m 1068 439 b 958 381 987 439 958 416 b 1068 322 958 345 988 322 b 1182 381 1150 322 1182 345 b 1068 439 1182 416 1150 439 m 1068 100 b 1198 167 1161 100 1198 127 b 1068 235 1198 208 1162 235 b 942 167 975 235 942 208 b 1068 100 942 127 975 100 "},"⅜":{"ha":1343,"x_min":0,"x_max":0,"o":"m 980 931 l 449 -28 l 377 17 l 905 972 m 545 504 b 300 334 545 401 452 334 b 51 521 141 334 45 411 l 171 521 b 299 455 172 480 215 455 b 416 522 385 455 416 477 b 280 591 416 567 374 591 l 199 591 l 199 667 l 280 667 b 407 731 376 667 407 690 b 295 786 407 764 375 786 b 177 730 223 786 178 761 l 57 730 b 293 912 51 842 156 912 b 535 762 447 912 535 846 b 352 631 535 680 464 639 b 545 504 468 622 545 594 m 1151 281 b 1285 150 1226 268 1285 224 b 1036 -18 1285 50 1201 -18 b 788 150 871 -18 788 50 b 916 281 788 224 847 268 b 803 403 853 296 803 335 b 1036 559 803 499 885 559 b 1269 403 1188 559 1269 499 b 1151 281 1269 335 1219 296 m 1036 439 b 926 381 955 439 926 416 b 1036 322 926 345 956 322 b 1150 381 1118 322 1150 345 b 1036 439 1150 416 1118 439 m 1036 100 b 1166 167 1129 100 1166 127 b 1036 235 1166 208 1130 235 b 910 167 943 235 910 208 b 1036 100 910 127 943 100 "},"⅝":{"ha":1376,"x_min":0,"x_max":0,"o":"m 1013 931 l 482 -28 l 410 17 l 938 972 m 582 523 b 337 334 582 405 493 334 b 81 520 188 334 86 405 l 207 520 b 341 453 212 479 261 453 b 453 530 412 453 453 480 b 344 606 453 581 414 606 b 213 567 277 606 225 594 l 102 595 l 122 899 l 529 899 l 529 782 l 232 782 l 221 646 b 381 703 258 684 310 703 b 582 523 498 703 582 636 m 1184 281 b 1318 150 1259 268 1318 224 b 1069 -18 1318 50 1234 -18 b 821 150 904 -18 821 50 b 949 281 821 224 880 268 b 836 403 886 296 836 335 b 1069 559 836 499 918 559 b 1302 403 1221 559 1302 499 b 1184 281 1302 335 1252 296 m 1069 439 b 959 381 988 439 959 416 b 1069 322 959 345 989 322 b 1183 381 1151 322 1183 345 b 1069 439 1183 416 1151 439 m 1069 100 b 1199 167 1162 100 1199 127 b 1069 235 1199 208 1163 235 b 943 167 976 235 943 208 b 1069 100 943 127 976 100 "},"⅞":{"ha":1222,"x_min":0,"x_max":0,"o":"m 859 931 l 328 -28 l 256 17 l 784 972 m 112 352 l 337 772 l 32 772 l 32 898 l 502 898 l 502 778 l 282 352 m 1030 281 b 1164 150 1105 268 1164 224 b 915 -18 1164 50 1080 -18 b 667 150 750 -18 667 50 b 795 281 667 224 726 268 b 682 403 732 296 682 335 b 915 559 682 499 764 559 b 1148 403 1067 559 1148 499 b 1030 281 1148 335 1098 296 m 915 439 b 805 381 834 439 805 416 b 915 322 805 345 835 322 b 1029 381 997 322 1029 345 b 915 439 1029 416 997 439 m 915 100 b 1045 167 1008 100 1045 127 b 915 235 1045 208 1009 235 b 789 167 822 235 789 208 b 915 100 789 127 822 100 "},"⅑":{"ha":1369,"x_min":0,"x_max":0,"o":"m 1012 931 l 481 -28 l 409 17 l 937 972 m 521 352 l 35 352 l 35 475 l 214 475 l 214 778 l 41 778 l 41 899 l 377 899 l 377 475 l 521 475 m 1061 559 b 1330 371 1228 559 1330 479 b 1291 256 1330 335 1323 300 b 1116 0 1264 208 1116 0 l 947 0 l 1110 189 b 1030 168 1086 176 1061 168 b 812 359 895 168 812 244 b 1061 559 812 482 903 559 m 1066 272 b 1203 356 1156 272 1203 306 b 1066 438 1203 404 1156 438 b 940 356 977 438 940 404 b 1066 272 940 306 977 272 "},"⅒":{"ha":2040,"x_min":0,"x_max":0,"o":"m 1012 931 l 482 -28 l 410 17 l 937 972 m 521 352 l 35 352 l 35 475 l 214 475 l 214 778 l 41 778 l 41 899 l 377 899 l 377 475 l 521 475 m 1679 558 b 1963 270 1865 558 1963 442 b 1679 -18 1963 98 1865 -18 b 1394 270 1492 -18 1394 98 b 1679 558 1394 442 1492 558 m 1218 123 l 1362 123 l 1362 0 l 875 0 l 875 123 l 1055 123 l 1055 425 l 881 425 l 881 546 l 1218 546 m 1679 121 b 1809 270 1765 121 1809 177 b 1679 417 1809 361 1765 417 b 1546 270 1592 417 1546 361 b 1679 121 1546 178 1591 121 "},".":{"ha":376,"x_min":0,"x_max":0,"o":"m 293 0 l 84 0 l 84 159 l 293 159 "},",":{"ha":321,"x_min":0,"x_max":0,"o":"m 68 -114 b 130 -15 68 -114 126 -81 l 54 1 l 54 159 l 266 159 l 266 55 b 84 -161 266 -72 203 -137 "},":":{"ha":415,"x_min":0,"x_max":0,"o":"m 303 529 l 93 529 l 93 687 l 303 687 m 303 0 l 93 0 l 93 159 l 303 159 "},";":{"ha":389,"x_min":0,"x_max":0,"o":"m 293 513 l 84 513 l 84 672 l 293 672 m 107 -96 b 169 3 107 -96 165 -64 l 93 18 l 93 177 l 306 177 l 306 72 b 123 -144 306 -55 242 -120 "},"…":{"ha":960,"x_min":0,"x_max":0,"o":"m 293 0 l 84 0 l 84 159 l 293 159 m 585 0 l 376 0 l 376 159 l 585 159 m 876 0 l 667 0 l 667 159 l 876 159 "},"!":{"ha":368,"x_min":0,"x_max":0,"o":"m 275 903 l 275 280 l 92 280 l 92 903 m 288 0 l 79 0 l 79 159 l 288 159 "},"¡":{"ha":368,"x_min":0,"x_max":0,"o":"m 79 635 l 79 794 l 288 794 l 288 635 m 92 514 l 275 514 l 275 -108 l 92 -108 "},"?":{"ha":807,"x_min":0,"x_max":0,"o":"m 401 917 b 749 642 641 917 749 796 b 468 374 749 476 630 385 l 468 279 l 291 279 l 291 509 l 393 510 b 564 638 501 510 564 563 b 401 759 564 713 506 759 b 237 641 295 759 240 707 l 59 641 b 401 917 54 766 163 917 m 272 159 l 481 159 l 481 0 l 272 0 "},"¿":{"ha":807,"x_min":0,"x_max":0,"o":"m 535 655 l 326 655 l 326 814 l 535 814 m 748 172 b 405 -103 753 48 644 -103 b 58 172 166 -103 58 18 b 339 440 58 338 177 429 l 339 535 l 515 535 l 515 305 l 414 304 b 243 176 306 304 243 251 b 405 55 243 101 301 55 b 570 172 512 55 567 106 l 748 172 "},"·":{"ha":376,"x_min":0,"x_max":0,"o":"m 293 300 l 84 300 l 84 458 l 293 458 "},"•":{"ha":633,"x_min":0,"x_max":0,"o":"m 499 546 l 499 182 l 135 182 l 135 546 "},"*":{"ha":699,"x_min":0,"x_max":0,"o":"m 458 696 l 580 537 l 467 454 l 347 630 l 227 455 l 115 537 l 238 696 l 56 750 l 100 883 l 283 818 l 277 1017 l 416 1017 l 410 817 l 600 884 l 643 751 "},"#":{"ha":1263,"x_min":0,"x_max":0,"o":"m 934 550 l 934 348 l 1170 348 l 1170 220 l 934 220 l 934 19 l 765 19 l 765 220 l 504 220 l 504 19 l 335 19 l 335 220 l 93 220 l 93 348 l 335 348 l 335 550 l 93 550 l 93 678 l 335 678 l 335 879 l 504 879 l 504 678 l 765 678 l 765 879 l 934 879 l 934 678 l 1170 678 l 1170 550 m 765 550 l 504 550 l 504 348 l 765 348 "},"/":{"ha":668,"x_min":0,"x_max":0,"o":"m 618 993 l 195 -167 l 50 -115 l 473 1046 "},"\\":{"ha":668,"x_min":0,"x_max":0,"o":"m 618 -115 l 473 -167 l 50 993 l 195 1046 "},"(":{"ha":467,"x_min":0,"x_max":0,"o":"m 297 -202 b 74 397 297 -202 74 15 b 297 992 74 780 297 992 l 393 915 b 215 397 393 915 215 735 b 393 -125 215 51 393 -125 "},")":{"ha":467,"x_min":0,"x_max":0,"o":"m 74 -125 b 252 397 74 -125 252 51 b 74 915 252 735 74 915 l 170 992 b 393 397 170 992 393 780 b 170 -202 393 15 170 -202 l 74 -125 "},"{":{"ha":671,"x_min":0,"x_max":0,"o":"m 547 970 l 331 970 b 418 626 331 874 418 740 b 216 432 418 521 339 458 b 418 238 339 406 418 343 b 331 -106 418 124 331 -10 l 547 -106 l 547 -247 l 169 -247 b 273 238 139 -74 273 140 b 68 372 273 319 211 372 l 68 492 b 273 626 211 492 273 544 b 169 1111 273 724 139 938 l 547 1111 "},"}":{"ha":671,"x_min":0,"x_max":0,"o":"m 397 626 b 602 492 397 544 460 492 l 602 372 b 397 237 460 372 397 319 b 501 -247 397 140 532 -74 l 123 -247 l 123 -106 l 340 -106 b 253 237 340 -10 253 124 b 455 432 253 343 332 406 b 253 626 332 458 253 521 b 340 970 253 740 340 874 l 123 970 l 123 1111 l 501 1111 b 397 626 532 938 397 724 "},"[":{"ha":567,"x_min":0,"x_max":0,"o":"m 485 -255 l 123 -255 l 123 1111 l 485 1111 l 485 970 l 265 970 l 265 -114 l 485 -114 "},"]":{"ha":569,"x_min":0,"x_max":0,"o":"m 304 -113 l 304 970 l 83 970 l 83 1111 l 445 1111 l 445 -255 l 83 -255 l 83 -113 "},"-":{"ha":686,"x_min":0,"x_max":0,"o":"m 575 444 l 575 308 l 111 308 l 111 444 "},"­":{"ha":833,"x_min":0,"x_max":0,"o":"m 575 444 l 575 308 l 111 308 l 111 444 "},"–":{"ha":839,"x_min":0,"x_max":0,"o":"m 727 446 l 727 307 l 111 307 l 111 446 "},"—":{"ha":1172,"x_min":0,"x_max":0,"o":"m 1089 447 l 1089 308 l 83 308 l 83 447 "},"_":{"ha":1179,"x_min":0,"x_max":0,"o":"m 1082 -139 l 1082 -278 l 98 -278 l 98 -139 "},"‚":{"ha":321,"x_min":0,"x_max":0,"o":"m 68 -114 b 130 -15 68 -114 126 -81 l 54 1 l 54 159 l 266 159 l 266 55 b 84 -161 266 -72 203 -137 "},"„":{"ha":321,"x_min":0,"x_max":0,"o":"m 68 -114 b 130 -15 68 -114 126 -81 l 54 1 l 54 159 l 266 159 l 266 55 b 84 -161 266 -72 203 -137 "},"“":{"ha":596,"x_min":0,"x_max":0,"o":"m 253 882 b 190 783 253 882 194 849 l 267 767 l 267 609 l 54 609 l 54 713 b 236 929 54 840 117 905 m 527 882 b 465 783 527 882 469 849 l 541 767 l 541 609 l 329 609 l 329 713 b 511 929 329 840 392 905 "},"”":{"ha":594,"x_min":0,"x_max":0,"o":"m 68 634 b 130 733 68 634 126 667 l 54 749 l 54 907 l 266 907 l 266 803 b 84 587 266 676 203 611 m 343 634 b 405 733 343 634 401 667 l 329 749 l 329 907 l 541 907 l 541 803 b 359 587 541 676 478 611 "},"‘":{"ha":321,"x_min":0,"x_max":0,"o":"m 253 882 b 190 783 253 882 194 849 l 267 767 l 267 609 l 54 609 l 54 713 b 236 929 54 840 117 905 "},"’":{"ha":321,"x_min":0,"x_max":0,"o":"m 68 634 b 130 733 68 634 126 667 l 54 749 l 54 907 l 266 907 l 266 803 b 84 587 266 676 203 611 "},"«":{"ha":811,"x_min":0,"x_max":0,"o":"m 253 388 l 460 162 l 360 66 l 66 388 l 360 709 l 459 613 m 691 272 l 592 179 l 400 390 l 592 601 l 690 507 l 584 390 "},"»":{"ha":819,"x_min":0,"x_max":0,"o":"m 736 388 l 442 66 l 342 162 l 548 388 l 343 613 l 442 709 m 402 390 l 210 179 l 111 272 l 218 390 l 112 507 l 209 601 "},"‹":{"ha":588,"x_min":0,"x_max":0,"o":"m 477 162 l 377 66 l 83 388 l 377 709 l 476 613 l 271 388 "},"›":{"ha":588,"x_min":0,"x_max":0,"o":"m 505 388 l 211 66 l 111 162 l 318 388 l 112 613 l 211 709 "},"\"":{"ha":594,"x_min":0,"x_max":0,"o":"m 68 634 b 130 733 68 634 126 667 l 54 748 l 54 907 l 266 907 l 266 803 b 84 587 266 676 203 611 m 343 634 b 405 733 343 634 401 667 l 329 748 l 329 907 l 541 907 l 541 803 b 359 587 541 676 478 611 "},"'":{"ha":319,"x_min":0,"x_max":0,"o":"m 112 615 l 54 787 l 54 907 l 265 907 l 265 787 l 207 615 "}," ":{"ha":335,"x_min":0,"x_max":0,"o":""},"¢":{"ha":953,"x_min":0,"x_max":0,"o":"m 903 272 b 495 -16 888 91 738 -16 b 466 -16 485 -16 475 -16 l 445 -136 l 348 -119 l 368 -5 b 51 344 178 30 51 148 b 494 706 51 579 237 706 l 518 844 l 614 827 l 592 700 b 901 419 777 674 888 573 l 736 419 b 567 557 712 490 648 539 l 491 126 b 495 126 492 126 493 126 b 738 272 619 126 706 180 m 233 344 b 394 139 233 235 300 167 l 469 564 b 233 344 339 555 233 480 "},"¤":{"ha":936,"x_min":0,"x_max":0,"o":"m 832 428 b 720 213 832 338 791 264 l 802 122 l 730 57 l 630 168 b 469 144 583 152 529 144 b 308 168 410 144 356 152 l 209 57 l 137 122 l 218 213 b 104 428 146 263 104 337 b 219 643 104 518 147 593 l 137 735 l 209 799 l 309 688 b 469 712 356 704 410 712 b 629 687 528 712 582 703 l 730 799 l 802 735 l 719 642 b 832 428 790 592 832 517 m 280 428 b 469 273 280 342 353 273 b 657 428 583 273 657 342 b 469 583 657 513 584 583 b 280 428 354 583 280 513 "},"$":{"ha":788,"x_min":0,"x_max":0,"o":"m 445 485 b 732 278 587 455 732 430 b 419 74 732 148 606 74 b 391 75 410 74 400 75 l 360 -99 l 262 -82 l 292 87 b 58 321 98 129 52 264 l 225 321 b 414 213 245 258 305 214 b 547 290 513 213 547 245 b 363 385 547 353 482 366 b 65 587 205 413 65 449 b 392 797 65 721 204 797 b 417 796 400 797 409 797 l 448 973 l 547 956 l 516 783 b 708 561 641 751 707 668 l 548 561 b 389 656 533 630 483 656 b 249 579 298 656 249 628 b 445 485 249 522 314 506 "},"€":{"ha":1339,"x_min":0,"x_max":0,"o":"m 855 475 l 28 475 l 112 557 l 204 557 b 732 917 252 795 462 917 b 1138 791 913 917 1052 871 l 1012 657 b 763 754 956 721 868 754 b 402 557 585 754 451 686 l 931 557 m 1265 324 b 763 -18 1241 106 1056 -18 b 206 323 480 -18 258 101 l 28 323 l 112 401 l 785 401 l 710 323 l 409 323 b 763 140 461 201 593 140 b 1082 324 937 140 1044 209 "},"ƒ":{"ha":1257,"x_min":0,"x_max":0,"o":"m 891 917 b 1205 637 1094 917 1205 800 l 1033 637 b 891 763 1031 711 981 763 b 718 516 795 763 719 715 l 718 501 l 897 501 l 897 415 l 718 415 l 718 373 b 379 -14 718 98 577 -14 b 51 262 183 -14 51 107 l 223 262 b 379 140 225 187 290 140 b 538 373 470 140 538 187 l 538 415 l 348 415 l 348 501 l 538 501 l 538 516 b 891 917 538 808 689 917 "},"£":{"ha":924,"x_min":0,"x_max":0,"o":"m 410 315 b 258 153 410 204 292 164 l 838 153 l 838 0 l 111 0 l 111 153 b 270 303 111 153 270 193 b 252 372 270 327 263 350 l 56 372 l 56 458 l 209 458 b 83 667 152 506 83 573 b 462 917 83 828 240 917 b 867 637 697 917 867 807 l 677 637 b 469 761 674 711 579 761 b 265 636 355 761 265 728 b 346 458 265 566 307 511 l 638 458 l 638 372 l 398 372 b 410 315 405 354 410 335 "},"¥":{"ha":1028,"x_min":0,"x_max":0,"o":"m 628 318 l 763 318 l 763 232 l 264 232 l 264 318 l 399 318 l 26 898 l 240 898 l 516 452 l 788 898 l 1002 898 m 264 165 l 763 165 l 763 79 l 606 79 l 606 0 l 421 0 l 421 79 l 264 79 "},"+":{"ha":778,"x_min":0,"x_max":0,"o":"m 708 309 l 464 309 l 464 112 l 314 112 l 314 309 l 69 309 l 69 441 l 314 441 l 314 638 l 464 638 l 464 441 l 708 441 "},"−":{"ha":681,"x_min":0,"x_max":0,"o":"m 611 443 l 611 307 l 69 307 l 69 443 "},"×":{"ha":694,"x_min":0,"x_max":0,"o":"m 440 366 l 612 195 l 519 101 l 347 273 l 175 101 l 82 195 l 254 366 l 82 538 l 175 631 l 347 460 l 519 631 l 612 538 "},"÷":{"ha":736,"x_min":0,"x_max":0,"o":"m 454 479 l 244 479 l 244 621 l 454 621 m 667 439 l 667 303 l 69 303 l 69 439 m 454 51 l 244 51 l 244 193 l 454 193 "},"=":{"ha":814,"x_min":0,"x_max":0,"o":"m 744 595 l 744 458 l 69 458 l 69 595 m 744 313 l 744 176 l 69 176 l 69 313 "},"≠":{"ha":814,"x_min":0,"x_max":0,"o":"m 474 458 l 433 313 l 744 313 l 744 176 l 394 176 l 347 8 l 258 33 l 299 176 l 69 176 l 69 313 l 337 313 l 379 458 l 69 458 l 69 595 l 417 595 l 466 770 l 555 745 l 513 595 l 744 595 l 744 458 "},">":{"ha":747,"x_min":0,"x_max":0,"o":"m 654 478 l 654 326 l 199 68 l 130 197 l 513 403 l 130 611 l 199 737 "},"<":{"ha":739,"x_min":0,"x_max":0,"o":"m 225 403 l 608 197 l 540 68 l 84 326 l 84 478 l 540 737 l 608 611 "},"≥":{"ha":754,"x_min":0,"x_max":0,"o":"m 661 497 l 661 345 l 178 156 l 130 291 l 511 430 l 137 608 l 197 734 m 148 86 l 642 86 l 642 -14 l 148 -14 "},"≤":{"ha":808,"x_min":0,"x_max":0,"o":"m 631 156 l 148 345 l 148 497 l 612 734 l 672 608 l 298 429 l 678 291 m 166 86 l 660 86 l 660 -14 l 166 -14 "},"±":{"ha":778,"x_min":0,"x_max":0,"o":"m 708 473 l 708 341 l 464 341 l 464 172 l 314 172 l 314 341 l 69 341 l 69 473 l 314 473 l 314 642 l 464 642 l 464 473 m 79 86 l 699 86 l 699 -14 l 79 -14 "},"≈":{"ha":865,"x_min":0,"x_max":0,"o":"m 794 616 b 603 406 804 501 735 406 b 290 509 470 406 386 509 b 203 436 234 509 203 471 l 71 436 b 280 646 61 550 134 646 b 594 543 413 646 498 543 b 662 616 649 543 662 581 m 794 339 b 603 130 804 230 735 130 b 290 232 470 130 386 232 b 203 160 234 232 203 195 l 71 160 b 280 370 61 274 134 370 b 594 267 413 370 498 267 b 671 339 649 267 671 305 "},"~":{"ha":432,"x_min":0,"x_max":0,"o":"m 297 300 l 88 300 l 88 458 l 297 458 "},"¬":{"ha":1004,"x_min":0,"x_max":0,"o":"m 865 222 l 707 222 l 707 441 l 118 441 l 118 578 l 865 578 "},"^":{"ha":815,"x_min":0,"x_max":0,"o":"m 314 698 l 104 698 l 104 857 l 314 857 "},"∅":{"ha":1106,"x_min":0,"x_max":0,"o":"m 799 751 b 1022 421 939 690 1022 572 b 553 44 1022 194 836 44 b 400 61 499 44 447 50 l 311 -95 l 227 -46 l 306 91 b 83 421 166 152 83 269 b 553 798 83 647 270 798 b 705 782 608 798 658 792 l 793 934 l 877 886 l 799 751 m 258 421 b 380 220 258 335 304 263 l 632 656 b 553 664 607 661 581 664 b 258 421 381 664 258 560 m 553 178 b 847 421 725 178 847 282 b 725 622 847 506 800 579 l 473 186 b 553 178 498 181 525 178 "},"∞":{"ha":1533,"x_min":0,"x_max":0,"o":"m 1133 706 b 1459 409 1320 706 1459 578 b 1124 112 1459 240 1320 112 b 771 319 949 112 854 212 b 409 113 684 212 583 113 b 74 411 213 113 74 242 b 400 706 74 578 213 706 b 772 494 584 706 685 603 b 1133 706 856 602 951 706 m 1098 245 b 1282 409 1189 245 1282 309 b 1107 573 1282 508 1197 573 b 840 406 989 573 913 496 b 1098 245 910 318 983 245 m 435 246 b 704 405 560 246 635 318 b 426 572 632 495 555 572 b 251 411 336 572 251 508 b 435 246 251 310 344 246 "},"∫":{"ha":700,"x_min":0,"x_max":0,"o":"m 667 1056 l 667 897 l 565 897 b 440 772 495 898 440 871 l 440 83 b 199 -153 440 -83 338 -153 l 32 -153 l 32 6 l 134 6 b 259 131 204 5 259 32 l 259 819 b 495 1056 259 986 357 1056 "},"∏":{"ha":1190,"x_min":0,"x_max":0,"o":"m 1134 742 l 923 742 l 923 0 l 743 0 l 743 742 l 447 742 l 447 0 l 267 0 l 267 742 l 56 742 l 56 898 l 1134 898 "},"∑":{"ha":1010,"x_min":0,"x_max":0,"o":"m 882 744 l 332 744 l 675 436 l 339 154 l 882 154 l 882 0 l 117 0 l 117 152 l 430 437 l 117 741 l 117 898 l 882 898 "},"√":{"ha":1121,"x_min":0,"x_max":0,"o":"m 1103 744 l 840 744 l 516 0 l 346 0 l 21 690 l 219 690 l 429 199 l 720 898 l 720 898 l 720 898 l 1103 898 "},"µ":{"ha":1031,"x_min":0,"x_max":0,"o":"m 879 270 b 1012 149 879 164 922 149 l 1012 -10 b 698 228 789 -10 701 79 b 427 -16 674 134 608 -16 b 260 65 351 -16 296 10 l 260 -278 l 80 -278 l 80 690 l 260 690 l 260 311 b 448 130 260 169 342 130 b 698 307 606 130 675 252 l 698 690 l 879 690 l 879 270 "},"∂":{"ha":975,"x_min":0,"x_max":0,"o":"m 252 984 b 902 364 785 879 902 578 b 478 -16 902 142 726 -16 b 51 344 212 -16 51 129 b 411 693 51 562 206 693 b 723 522 568 693 672 626 b 224 852 674 672 534 788 l 252 984 m 486 124 b 743 341 629 124 743 207 b 482 555 743 478 622 555 b 235 339 328 555 235 471 b 486 124 235 205 333 124 "},"%":{"ha":1226,"x_min":0,"x_max":0,"o":"m 916 911 l 385 -47 l 313 -3 l 841 953 m 297 462 b 36 692 139 462 36 548 b 297 922 36 837 139 922 b 557 692 455 922 557 837 b 297 462 557 548 455 462 m 297 576 b 415 692 368 576 415 620 b 297 808 415 763 369 808 b 178 692 226 808 178 764 b 297 576 178 620 225 576 m 931 -17 b 670 213 772 -17 670 69 b 931 443 670 357 772 443 b 1191 213 1089 443 1191 357 b 931 -17 1191 69 1089 -17 m 931 97 b 1049 213 1002 97 1049 141 b 931 329 1049 284 1002 329 b 812 213 860 329 812 284 b 931 97 812 141 859 97 "},"‰":{"ha":1424,"x_min":0,"x_max":0,"o":"m 915 911 l 384 -47 l 312 -3 l 840 953 m 297 462 b 36 692 139 462 36 548 b 297 922 36 837 139 922 b 557 692 455 922 557 837 b 297 462 557 548 455 462 m 297 576 b 415 692 368 576 415 620 b 297 809 415 763 369 809 b 178 692 226 809 178 764 b 297 576 178 620 225 576 m 1128 344 b 867 574 969 344 867 430 b 1128 804 867 719 969 804 b 1387 574 1286 804 1387 719 b 1128 344 1387 430 1286 344 m 1128 458 b 1246 574 1198 458 1246 502 b 1128 690 1246 645 1200 690 b 1008 574 1056 690 1008 646 b 1128 458 1008 502 1056 458 m 859 -139 b 598 91 700 -139 598 -53 b 859 321 598 236 700 321 b 1118 91 1018 321 1118 235 b 859 -139 1118 -53 1017 -139 m 859 -25 b 977 91 930 -25 977 19 b 859 208 977 162 930 208 b 739 91 787 208 739 163 b 859 -25 739 19 787 -25 "},"↑":{"ha":976,"x_min":0,"x_max":0,"o":"m 714 616 l 554 762 l 556 660 l 556 -64 l 420 -64 l 420 660 l 422 763 l 263 617 l 167 717 l 488 1010 l 809 717 "},"↗":{"ha":1106,"x_min":0,"x_max":0,"o":"m 828 443 l 818 659 l 747 585 l 236 73 l 139 169 l 651 681 l 725 752 l 510 762 l 512 900 l 947 881 l 966 446 "},"→":{"ha":1213,"x_min":0,"x_max":0,"o":"m 1130 388 l 836 66 l 736 162 l 882 322 l 780 319 l 56 319 l 56 456 l 780 456 l 883 453 l 737 613 l 836 709 "},"↘":{"ha":1106,"x_min":0,"x_max":0,"o":"m 967 447 l 947 13 l 512 -7 l 509 132 l 725 141 l 651 212 l 139 724 l 236 821 l 747 309 l 818 234 l 828 450 "},"↓":{"ha":976,"x_min":0,"x_max":0,"o":"m 809 202 l 488 -91 l 167 202 l 262 303 l 422 156 l 419 259 l 419 983 l 556 983 l 556 259 l 553 156 l 713 302 "},"↙":{"ha":1106,"x_min":0,"x_max":0,"o":"m 380 141 l 597 132 l 593 -7 l 159 13 l 139 447 l 277 450 l 287 234 l 358 309 l 870 821 l 967 724 l 455 212 "},"←":{"ha":1213,"x_min":0,"x_max":0,"o":"m 434 319 l 331 322 l 477 162 l 377 66 l 83 388 l 377 709 l 476 613 l 331 453 l 434 456 l 1158 456 l 1158 319 "},"↖":{"ha":1106,"x_min":0,"x_max":0,"o":"m 966 172 l 870 76 l 358 588 l 287 662 l 277 446 l 139 449 l 159 884 l 593 903 l 596 765 l 380 755 l 455 684 "},"↔":{"ha":1492,"x_min":0,"x_max":0,"o":"m 1408 388 l 1115 66 l 1015 162 l 1161 322 l 1079 319 l 413 319 l 331 322 l 477 162 l 377 66 l 83 388 l 377 709 l 476 613 l 331 453 l 413 456 l 1079 456 l 1161 453 l 1015 613 l 1115 709 "},"↕":{"ha":976,"x_min":0,"x_max":0,"o":"m 713 195 l 809 96 l 488 -198 l 167 96 l 262 196 l 422 50 l 419 132 l 419 755 l 422 836 l 262 690 l 167 790 l 488 1084 l 809 790 l 713 691 l 554 836 l 556 755 l 556 132 l 554 50 "},"◊":{"ha":961,"x_min":0,"x_max":0,"o":"m 891 468 l 481 -8 l 69 468 l 480 944 m 251 468 l 481 202 l 709 468 l 480 735 "},"":{"ha":1194,"x_min":0,"x_max":0,"o":"m 597 917 b 1153 451 914 917 1153 735 b 597 -14 1153 168 914 -14 b 42 451 281 -14 42 168 b 597 917 42 735 281 917 m 566 839 b 380 669 479 826 417 758 b 566 656 431 661 492 656 l 566 839 m 628 656 b 814 670 702 657 763 661 b 628 839 777 759 715 826 m 327 680 b 445 828 354 740 394 793 b 233 716 362 808 289 770 b 327 680 259 701 289 689 m 749 828 b 867 681 800 793 839 741 b 959 718 904 691 934 703 b 749 828 904 771 832 808 m 1067 479 b 991 683 1062 560 1035 628 b 887 630 963 661 929 644 b 915 479 903 581 912 530 l 1067 479 m 201 681 b 127 479 159 626 132 559 l 280 479 b 307 628 282 529 291 580 b 201 681 265 642 230 659 m 854 479 b 832 615 852 526 845 572 b 628 594 776 603 708 596 l 628 479 m 566 594 b 362 614 486 596 418 602 b 341 479 350 571 343 525 l 566 479 l 566 594 m 127 424 b 197 228 132 347 157 281 b 306 283 226 251 262 269 b 280 424 291 330 282 378 l 127 424 m 341 424 b 361 298 343 382 350 339 b 566 318 418 310 485 316 l 566 424 m 628 317 b 833 297 709 316 776 309 b 853 424 845 338 851 381 l 628 424 l 628 317 m 996 225 b 1067 424 1037 279 1062 345 l 915 424 b 888 282 912 377 903 329 b 996 225 931 267 967 249 m 566 256 b 379 243 491 255 430 251 b 566 64 416 151 478 78 l 566 256 m 628 64 b 815 242 716 78 778 151 b 628 256 764 250 702 255 l 628 64 m 227 192 b 451 73 284 134 362 94 b 326 232 396 111 354 168 b 227 192 286 222 254 209 m 744 73 b 965 190 832 94 908 133 b 868 230 939 207 907 220 b 744 73 840 167 798 110 "},"@":{"ha":1243,"x_min":0,"x_max":0,"o":"m 1104 819 b 1127 701 1120 781 1127 741 b 1068 430 1127 610 1093 516 b 944 187 1058 398 979 214 b 902 157 930 177 913 169 b 885 139 895 149 895 143 b 881 138 884 138 882 138 b 857 148 873 138 865 145 b 791 236 810 167 791 196 b 796 492 791 324 796 405 b 810 539 796 496 798 491 b 819 571 813 549 827 579 b 766 516 800 554 783 536 l 766 443 b 719 456 757 443 740 448 b 592 290 677 399 638 340 b 363 91 524 217 435 161 b 356 127 356 85 356 111 b 369 288 356 183 358 233 b 444 541 387 376 416 455 b 470 628 454 569 462 598 b 468 657 471 633 468 647 b 474 666 468 663 470 666 b 494 660 480 666 488 661 b 563 648 511 656 546 654 b 696 590 585 640 646 612 b 745 648 714 615 731 635 b 905 514 842 736 948 675 l 893 492 b 875 276 893 416 879 346 l 875 276 l 977 458 b 1030 697 1007 558 1030 629 b 1012 784 1030 728 1027 749 b 985 816 996 820 1014 801 b 870 845 973 823 924 833 b 839 845 873 844 856 845 b 753 839 815 845 792 844 b 584 804 693 832 635 820 b 330 630 489 774 354 682 b 208 134 233 429 208 316 b 325 -83 208 -6 281 -29 b 400 -96 317 -73 333 -69 b 448 -101 411 -100 430 -101 b 575 -20 503 -101 482 -111 b 642 51 620 22 637 44 b 686 112 671 91 686 112 l 764 54 b 762 46 772 54 763 47 b 718 -14 747 26 733 6 b 639 -102 694 -47 671 -73 b 444 -221 569 -164 527 -221 b 358 -205 419 -221 391 -216 b 239 -145 315 -191 265 -176 b 108 129 174 -65 108 39 b 238 678 108 335 147 484 b 547 915 276 758 443 882 b 739 958 609 934 673 950 b 839 965 769 961 805 965 b 896 960 859 965 879 964 b 1040 914 950 948 993 939 b 1104 819 1078 894 1090 849 m 564 600 b 565 602 565 601 565 602 m 510 326 b 630 494 543 362 586 429 b 545 530 599 507 569 521 b 538 510 543 523 540 516 b 447 268 503 412 475 338 b 444 262 446 266 445 264 l 510 326 "},"&":{"ha":1074,"x_min":0,"x_max":0,"o":"m 1041 409 l 846 409 l 846 -203 l 675 -203 l 675 117 b 390 -18 626 44 536 -18 b 51 242 189 -18 51 86 b 368 467 51 393 178 452 b 68 672 189 481 68 533 b 456 917 68 818 217 917 b 826 646 670 917 826 826 l 656 646 b 456 763 653 722 574 763 b 257 641 327 763 257 717 b 490 511 257 559 332 511 l 1041 511 m 675 409 l 490 409 b 242 272 330 409 242 361 b 438 135 242 181 313 135 b 675 209 560 135 638 169 "},"¶":{"ha":1021,"x_min":0,"x_max":0,"o":"m 914 0 l 736 0 l 736 328 l 632 328 l 632 0 l 454 0 l 454 328 l 386 328 b 42 612 186 328 42 425 b 382 898 42 798 182 898 l 914 898 m 736 738 l 386 738 b 227 608 298 739 227 705 b 386 477 227 510 298 477 l 736 477 "},"§":{"ha":797,"x_min":0,"x_max":0,"o":"m 552 325 b 735 145 674 287 735 234 b 440 -50 735 26 622 -50 b 76 197 179 -50 66 112 l 235 197 b 429 89 253 137 316 90 b 563 169 523 88 563 119 b 393 267 563 232 506 244 b 60 473 197 300 60 352 b 266 613 60 549 122 606 b 71 785 125 659 71 706 b 378 986 71 903 189 986 b 700 751 575 986 697 895 l 538 751 b 372 846 526 817 471 846 b 242 767 294 846 242 817 b 423 665 242 705 310 689 b 742 458 608 631 742 589 b 552 325 742 385 685 333 m 245 480 b 445 364 245 415 321 392 b 557 461 518 373 557 409 b 370 571 557 530 493 546 b 245 480 291 562 245 530 "},"©":{"ha":1332,"x_min":0,"x_max":0,"o":"m 667 47 b 74 461 317 47 74 223 b 667 866 74 700 315 866 b 1258 461 1017 866 1258 699 b 667 47 1258 223 1014 47 m 667 159 b 1133 461 924 159 1133 282 b 667 754 1133 640 926 754 b 199 461 405 754 199 640 b 667 159 199 282 408 159 m 972 430 b 677 256 972 323 876 256 b 358 456 474 256 358 330 b 677 658 358 582 474 658 b 972 484 875 658 971 590 l 838 484 b 677 551 826 526 774 551 b 501 456 561 551 501 515 b 677 362 501 397 560 362 b 839 430 774 362 826 387 l 972 430 "},"®":{"ha":1332,"x_min":0,"x_max":0,"o":"m 667 117 b 74 531 317 117 74 292 b 667 936 74 770 314 936 b 1258 531 1017 936 1258 769 b 667 117 1258 292 1014 117 m 667 229 b 1133 531 934 229 1133 348 b 667 824 1133 714 936 824 b 199 531 396 824 199 714 b 667 229 199 348 398 229 m 448 732 l 754 732 b 935 604 879 732 935 688 b 826 494 935 540 910 500 b 926 414 910 484 926 457 l 926 337 l 805 337 l 805 407 b 700 451 805 440 783 451 l 569 451 l 569 337 l 448 337 m 757 545 b 814 590 791 545 813 559 b 757 627 814 616 793 627 l 569 627 l 569 545 "},"™":{"ha":1549,"x_min":0,"x_max":0,"o":"m 286 766 l 107 766 l 107 898 l 633 898 l 633 766 l 449 766 l 449 551 l 286 551 m 1441 898 l 1441 551 l 1280 551 l 1279 714 l 1169 549 l 1006 549 l 895 712 l 894 551 l 733 551 l 733 898 l 896 898 l 1087 653 l 1278 898 m 123 454 l 1441 454 l 1441 323 l 123 323 "},"°":{"ha":622,"x_min":0,"x_max":0,"o":"m 311 521 b 65 718 166 521 65 599 b 311 914 65 836 166 914 b 558 718 457 914 558 836 b 311 521 558 599 457 521 m 311 617 b 444 718 397 617 444 659 b 311 816 444 774 397 816 b 179 718 226 816 179 774 b 311 617 179 659 226 617 "},"|":{"ha":449,"x_min":0,"x_max":0,"o":"m 310 1111 l 310 -222 l 139 -222 l 139 1111 "},"¦":{"ha":449,"x_min":0,"x_max":0,"o":"m 310 606 l 139 606 l 139 1111 l 310 1111 m 310 -222 l 139 -222 l 139 283 l 310 283 "},"†":{"ha":1060,"x_min":0,"x_max":0,"o":"m 926 540 l 620 540 l 620 -278 l 440 -278 l 440 540 l 133 540 l 133 694 l 440 694 l 440 972 l 620 972 l 620 694 l 926 694 "},"‡":{"ha":1017,"x_min":0,"x_max":0,"o":"m 598 540 l 598 161 l 905 161 l 905 7 l 598 7 l 598 -278 l 418 -278 l 418 7 l 111 7 l 111 161 l 418 161 l 418 540 l 111 540 l 111 694 l 418 694 l 418 972 l 598 972 l 598 694 l 905 694 l 905 540 "},"̈":{"ha":0,"x_min":0,"x_max":0,"o":"m -398 836 l -607 836 l -607 995 l -398 995 m -97 836 l -306 836 l -306 995 l -97 995 "},"̇":{"ha":0,"x_min":0,"x_max":0,"o":"m -104 837 l -314 837 l -314 996 l -104 996 "},"̀":{"ha":0,"x_min":0,"x_max":0,"o":"m -104 996 l -104 837 l -314 837 l -314 996 "},"́":{"ha":0,"x_min":0,"x_max":0,"o":"m -104 837 l -314 837 l -314 996 l -104 996 "},"̋":{"ha":0,"x_min":0,"x_max":0,"o":"m -415 836 l -624 836 l -624 995 l -415 995 m -114 836 l -323 836 l -323 995 l -114 995 "},"̂":{"ha":0,"x_min":0,"x_max":0,"o":"m -104 837 l -314 837 l -314 996 l -104 996 "},"̌":{"ha":0,"x_min":0,"x_max":0,"o":"m -104 837 l -314 837 l -314 996 l -104 996 "},"̆":{"ha":0,"x_min":0,"x_max":0,"o":"m -104 837 l -314 837 l -314 996 l -104 996 "},"̊":{"ha":0,"x_min":0,"x_max":0,"o":"m -104 837 l -314 837 l -314 996 l -104 996 "},"̃":{"ha":0,"x_min":0,"x_max":0,"o":"m -104 837 l -314 837 l -314 996 l -104 996 "},"̄":{"ha":0,"x_min":0,"x_max":0,"o":"m -104 837 l -314 837 l -314 996 l -104 996 "},"̒":{"ha":0,"x_min":0,"x_max":0,"o":"m -104 837 l -314 837 l -314 996 l -104 996 "},"̦":{"ha":0,"x_min":0,"x_max":0,"o":"m -119 -277 l -328 -277 l -328 -118 l -119 -118 "},"̧":{"ha":0,"x_min":0,"x_max":0,"o":"m -104 -277 l -314 -277 l -314 -118 l -104 -118 "},"̨":{"ha":0,"x_min":0,"x_max":0,"o":"m -104 -278 l -314 -278 l -314 -119 l -104 -119 "},"̵":{"ha":0,"x_min":0,"x_max":0,"o":"m -104 587 l -104 501 l -603 501 l -603 587 "},"̶":{"ha":0,"x_min":0,"x_max":0,"o":"m -104 589 l -104 506 l -660 506 l -660 589 "},"̷":{"ha":0,"x_min":0,"x_max":0,"o":"m -104 710 l -674 321 l -722 394 l -156 783 "},"̸":{"ha":0,"x_min":0,"x_max":0,"o":"m -104 959 l -658 -41 l -730 4 l -179 1001 "},"´":{"ha":422,"x_min":0,"x_max":0,"o":"m 328 837 l 118 837 l 118 996 l 328 996 "},"˘":{"ha":828,"x_min":0,"x_max":0,"o":"m 314 866 l 104 866 l 104 1025 l 314 1025 "},"ˇ":{"ha":828,"x_min":0,"x_max":0,"o":"m 119 889 l 119 1048 l 328 1048 l 328 889 "},"¸":{"ha":422,"x_min":0,"x_max":0,"o":"m 314 -277 l 104 -277 l 104 -118 l 314 -118 "},"ˆ":{"ha":422,"x_min":0,"x_max":0,"o":"m 328 837 l 119 837 l 119 996 l 328 996 "},"¨":{"ha":751,"x_min":0,"x_max":0,"o":"m 321 836 l 111 836 l 111 995 l 321 995 m 622 836 l 413 836 l 413 995 l 622 995 "},"˙":{"ha":422,"x_min":0,"x_max":0,"o":"m 314 837 l 104 837 l 104 996 l 314 996 "},"`":{"ha":815,"x_min":0,"x_max":0,"o":"m 613 996 l 613 837 l 404 837 l 404 996 "},"˝":{"ha":751,"x_min":0,"x_max":0,"o":"m 321 836 l 111 836 l 111 995 l 321 995 m 622 836 l 413 836 l 413 995 l 622 995 "},"¯":{"ha":422,"x_min":0,"x_max":0,"o":"m 314 837 l 104 837 l 104 996 l 314 996 "},"˛":{"ha":422,"x_min":0,"x_max":0,"o":"m 314 -278 l 104 -278 l 104 -119 l 314 -119 "},"˚":{"ha":828,"x_min":0,"x_max":0,"o":"m 414 751 b 240 926 318 751 240 829 b 414 1100 240 1022 318 1100 b 588 926 510 1100 588 1022 b 414 751 588 829 510 751 m 414 849 b 489 926 456 849 489 883 b 414 1003 489 968 456 1003 b 339 926 372 1003 339 968 b 414 849 339 883 372 849 "},"˜":{"ha":828,"x_min":0,"x_max":0,"o":"m 314 837 l 104 837 l 104 996 l 314 996 "}}}
